<svg xmlns="http://www.w3.org/2000/svg" width="22" height="19.59" viewBox="0 0 22 19.59">
  <path id="Path_332" data-name="Path 332" d="M136.167,220.749a6.932,6.932,0,0,0-2.741-3.131,6.676,6.676,0,0,0-3.917-1.11,5.458,5.458,0,0,0-3.81,1.938,5.383,5.383,0,0,0-1.126,2.335,5.4,5.4,0,0,0-2-1.226,5.466,5.466,0,0,0-4.265.348,6.625,6.625,0,0,0-2.75,3.006,6.9,6.9,0,0,0-.687,4.1,8.447,8.447,0,0,0,2.427,4.7,11.934,11.934,0,0,0,4.969,2.576c3.023.828,6.973,1.805,6.973,1.805s2.261-2.965,4.4-5.251a11.9,11.9,0,0,0,2.907-4.82A8.423,8.423,0,0,0,136.167,220.749Z" transform="translate(-114.799 -216.505)" fill="#162a40"/>
</svg>
