<svg xmlns="http://www.w3.org/2000/svg" width="374.121" height="317.64" viewBox="0 0 374.121 317.64">
  <g id="In_love-pana" data-name="In love-pana" transform="translate(-34.13 -80.368)">
    <g id="freepik--background-complete--inject-37" transform="translate(38.196 27)">
      <path id="Path_29" data-name="Path 29" d="M68.362,425.573c.7-2.8-1.143-5.594-3.205-7.614s-4.537-3.816-5.62-6.5c-1.719-4.3.541-9.968-2.432-13.578-1.719-2.114-4.873-2.81-6.428-5.079a11.732,11.732,0,0,1-1.384-4.065A41.411,41.411,0,0,0,38.9,369.56a35.869,35.869,0,0,0,4.133,18.519c1.212,2.269,2.69,4.486,3.1,7.021.67,4.125-1.616,8.4-.576,12.443,1.186,4.632,6.411,7.734,6.686,12.478.232,4.03-3.266,7.6-2.982,11.627a10.914,10.914,0,0,0,1.83,4.769c3.145,5.156,7.734,8.722,14.695,8.594l8.516.249Z" transform="translate(-38.862 -75.18)" fill="#e0e0e0"/>
      <path id="Path_30" data-name="Path 30" d="M81.455,440.41a6.7,6.7,0,0,0,2.346-.06,14.071,14.071,0,0,0,2.759-.713A11.541,11.541,0,0,0,90,437.746a4.805,4.805,0,0,0,1.4-1.873,8.808,8.808,0,0,0,.378-2.578,25.5,25.5,0,0,1,.189-2.75,7.511,7.511,0,0,1,.988-2.75c1-1.77,2.647-3.437,3.171-5.844a20.128,20.128,0,0,0-.275-7.459c-.412-2.561-.808-5.328.155-7.992s2.75-5.079,3.669-8.087.455-6.29.636-9.5a12.805,12.805,0,0,1,1.083-4.735c.679-1.512,1.624-2.939,2.363-4.529,1.5-3.214,1.719-6.875,2.131-10.407q.284-2.69.584-5.44a26.537,26.537,0,0,1,.911-5.448,48.728,48.728,0,0,1,2-5.277,16.874,16.874,0,0,0,.971-2.758,26.3,26.3,0,0,0,.258-2.931,33.8,33.8,0,0,0-.258-5.886c-.241-1.959-.6-3.91-.859-5.878v-.335l-.043-.4-.352.18a13.038,13.038,0,0,0-4.555,3.893,20.624,20.624,0,0,0-2.784,5.2c-1.4,3.669-1.891,7.5-2.578,11.172a30.433,30.433,0,0,1-3.437,10.312c-.928,1.512-2.045,2.9-3.025,4.391a11.971,11.971,0,0,0-2.088,4.864c-.481,3.6,1.521,6.746,1.126,9.943a10.974,10.974,0,0,1-1.53,4.426c-.765,1.358-1.667,2.63-2.518,3.9a25.017,25.017,0,0,0-2.26,3.936,12.374,12.374,0,0,0-1.023,4.3c-.189,2.87.232,5.594,0,8.164a18.631,18.631,0,0,1-2.062,7c-1.014,2.1-2.148,4-3.094,5.844a29.6,29.6,0,0,0-1.28,2.715,13.571,13.571,0,0,0-.73,2.7,17.067,17.067,0,0,0,0,4.855,12.28,12.28,0,0,0,2.466,6.179,6.589,6.589,0,0,0,.7.739,3.137,3.137,0,0,0,.559.473c.318.232.49.335.49.335a11.072,11.072,0,0,1-1.659-1.616,12.349,12.349,0,0,1-2.337-6.136,16.747,16.747,0,0,1,.077-4.8,13.011,13.011,0,0,1,.739-2.63,29,29,0,0,1,1.3-2.681c.954-1.822,2.105-3.712,3.145-5.826a19.052,19.052,0,0,0,2.131-7.133c.206-2.621-.206-5.354,0-8.155a12.134,12.134,0,0,1,1-4.134,24.433,24.433,0,0,1,2.209-3.884c.859-1.263,1.719-2.535,2.578-3.927a11.637,11.637,0,0,0,1.6-4.606c.387-3.437-1.6-6.565-1.109-9.917a11.472,11.472,0,0,1,2.019-4.649c.962-1.461,2.088-2.853,3.034-4.409a30.74,30.74,0,0,0,3.523-10.484c.687-3.678,1.195-7.476,2.578-11.06A20.141,20.141,0,0,1,105,339.3a12.553,12.553,0,0,1,4.374-3.73l-.4-.215v.344c.232,1.985.593,3.936.859,5.878a33.663,33.663,0,0,1,.258,5.8c-.052.945-.1,1.942-.241,2.836a17.5,17.5,0,0,1-.945,2.655,50.707,50.707,0,0,0-2.019,5.337,27.672,27.672,0,0,0-.928,5.543q-.284,2.741-.567,5.44c-.387,3.583-.636,7.158-2.071,10.261-.713,1.547-1.659,2.973-2.355,4.537a13.115,13.115,0,0,0-1.117,4.9c-.163,3.291.284,6.5-.593,9.41s-2.707,5.328-3.626,8.078-.559,5.654-.137,8.19.859,5.053.318,7.322-2.088,3.944-3.1,5.766a8.018,8.018,0,0,0-1.091,2.879,24.457,24.457,0,0,0-.163,2.784,8.7,8.7,0,0,1-.344,2.475,4.6,4.6,0,0,1-1.315,1.8,11.68,11.68,0,0,1-3.317,1.89,14.342,14.342,0,0,1-2.724.756,10.907,10.907,0,0,1-1.719.18Z" transform="translate(-44.238 -70.304)" fill="#e0e0e0"/>
      <path id="Path_31" data-name="Path 31" d="M108.5,340.85a.86.86,0,0,0-.086.258,4.158,4.158,0,0,1-.18.773c-.163.67-.361,1.719-.67,2.948s-1.091,2.69-1.719,4.451-1.358,3.773-1.985,6.016-1.195,4.8-1.787,7.5a31.325,31.325,0,0,1-2.673,8.319c-.687,1.392-1.469,2.793-2.08,4.3a19.762,19.762,0,0,0-1.2,4.89,99.515,99.515,0,0,1-1.77,10.312c-1.667,6.978-3.257,13.629-4.7,19.688s-2.819,11.472-3.944,16.061-2.011,8.284-2.638,10.862c-.284,1.246-.516,2.234-.679,2.956-.069.309-.12.559-.163.765a1.306,1.306,0,0,0,0,.266.615.615,0,0,1,.095-.249l.215-.756c.189-.713.455-1.719.782-2.93.67-2.578,1.616-6.273,2.784-10.793s2.527-10.011,4.056-16.036,3.051-12.675,4.7-19.628a98,98,0,0,0,1.77-10.312,19.655,19.655,0,0,1,1.152-4.769c.593-1.5,1.358-2.887,2.045-4.3A31.684,31.684,0,0,0,102.491,363c.567-2.716,1.1-5.225,1.719-7.493s1.255-4.3,1.9-6.016a44.74,44.74,0,0,0,1.667-4.512c.309-1.306.438-2.294.576-2.982l.129-.773A1.092,1.092,0,0,0,108.5,340.85Z" transform="translate(-44.959 -71.142)" fill="#e0e0e0"/>
      <path id="Path_32" data-name="Path 32" d="M78.779,436.081c5.543-3.343,7.081-13.38,4.726-19.4S77.061,405.17,76.4,398.734c-.507-4.941,1.083-10.029-.095-14.858-1.6-6.514-7.992-11.533-7.958-18.244,0-3.764,2.14-7.313,1.951-11.077-.241-4.606-3.8-8.25-6.015-12.3-3.386-6.2-3.652-13.552-4.838-20.513s-3.884-14.42-10.089-17.815c-.859,5.93-2.415,9.994-1.873,18,.189,2.879,3.566,8.379,4.056,14.686.292,3.773.507,7.545.756,11.318s.507,7.416,1.839,10.845c1.023,2.63,2.664,5.01,3.437,7.734,1.435,5.113-.387,10.665.782,15.838.988,4.383,4.048,8.147,4.7,12.6.859,6.248-3.111,12.77-1.005,18.725,1.048,2.956,3.5,5.319,4.211,8.379.55,2.372,0,4.881.473,7.261.808,3.833,8.147,7.03,12.031,6.772" transform="translate(-40.058 -65.949)" fill="#ebebeb"/>
      <path id="Path_33" data-name="Path 33" d="M51.5,310.76a1.653,1.653,0,0,0,0,.335,8.351,8.351,0,0,0,.138.971c.129.859.284,2.105.576,3.73s1.177,3.437,1.856,5.68,1.444,4.744,2.088,7.6,1.194,6.015,1.77,9.393a38.561,38.561,0,0,0,2.913,10.622c.791,1.77,1.676,3.541,2.337,5.431a24.6,24.6,0,0,1,1.212,6.015,121.45,121.45,0,0,0,1.719,12.933l4.941,24.706c1.6,7.562,3.034,14.377,4.245,20.117s2.217,10.312,2.913,13.552l.859,3.678c.086.4.163.713.223.954s.086.576.095.576a3.843,3.843,0,0,0,0-.584c-.043-.249-.1-.567-.172-.971-.172-.859-.412-2.114-.713-3.7-.662-3.248-1.6-7.88-2.75-13.586s-2.578-12.572-4.134-20.143-3.162-15.941-4.9-24.7A122.194,122.194,0,0,1,65,360.482a24.654,24.654,0,0,0-1.255-6.119c-.687-1.925-1.581-3.712-2.372-5.465-1.719-3.48-2.3-7.116-2.922-10.493s-1.169-6.548-1.848-9.4a77.264,77.264,0,0,0-2.166-7.614c-.722-2.217-1.6-4.03-1.942-5.62s-.507-2.862-.679-3.7c-.077-.4-.137-.713-.18-.963A1,1,0,0,0,51.5,310.76Z" transform="translate(-40.638 -66.91)" fill="#e0e0e0"/>
    </g>
    <g id="freepik--Floor--inject-37" transform="translate(34.13 397.562)">
      <path id="Path_42" data-name="Path 42" d="M407.287,458.434c0,.12-83.546.223-186.574.223s-186.583-.1-186.583-.223,83.521-.224,186.583-.224S407.287,458.313,407.287,458.434Z" transform="translate(-34.13 -458.21)" fill="#263238"/>
    </g>
    <g id="freepik--Heart--inject-37" transform="translate(85.108 95.458)">
      <path id="Path_43" data-name="Path 43" d="M253.6,352.839c-60.155-6.419-109.714-34.623-133.544-59.527A96.248,96.248,0,0,1,94.275,214.32c3.755-28.909,19.868-56.769,45.107-71.326s59.484-13.922,82.146,4.417c10.364-24.99,37.623-41.12,64.675-40.742s52.8,15.958,68.035,38.31,20.427,50.7,16.972,77.548S356.1,274.707,340.342,296.7c-20.728,28.934-51.235,53.632-86.735,56.176" transform="translate(-93.452 -106.662)" fill="#ff725e"/>
      <path id="Path_44" data-name="Path 44" d="M253.6,352.839c-60.155-6.419-109.714-34.623-133.544-59.527A96.248,96.248,0,0,1,94.275,214.32c3.755-28.909,19.868-56.769,45.107-71.326s59.484-13.922,82.146,4.417c10.364-24.99,37.623-41.12,64.675-40.742s52.8,15.958,68.035,38.31,20.427,50.7,16.972,77.548S356.1,274.707,340.342,296.7c-20.728,28.934-51.235,53.632-86.735,56.176" transform="translate(-93.452 -106.662)" fill="#fff" opacity="0.8"/>
    </g>
    <g id="freepik--Plant--inject-37" transform="translate(321.535 179.432)">
      <path id="Path_45" data-name="Path 45" d="M421.938,403.226a2.445,2.445,0,0,0-.189-.5l-.627-1.452a35.882,35.882,0,0,1-1.779-5.766c-1.143-5.156-1.349-12.89.859-22.034a118.063,118.063,0,0,1,4.563-14.678c1.891-5.2,4.082-10.716,5.912-16.689a64.637,64.637,0,0,0,3.266-19.293c-.034-6.849-1.839-13.75-3.858-20.624s-4.1-13.638-4.58-20.367a30.859,30.859,0,0,1,4.3-18.536c3.128-5.345,7-9.883,9.925-14.609a51.641,51.641,0,0,0,6.136-14.162,53.4,53.4,0,0,0,1.066-22.214,41.842,41.842,0,0,0-2.071-7.923,2.873,2.873,0,0,0,.12.533c.1.37.241.859.421,1.513a56.916,56.916,0,0,1,1.255,5.921,54.138,54.138,0,0,1-1.272,22.034,51.682,51.682,0,0,1-6.144,13.982c-2.93,4.684-6.806,9.2-9.994,14.609a31.4,31.4,0,0,0-4.426,18.906c.481,6.875,2.578,13.629,4.6,20.513s3.807,13.75,3.85,20.453a65.077,65.077,0,0,1-3.214,19.078c-1.8,5.947-3.962,11.464-5.844,16.671a115.876,115.876,0,0,0-4.469,14.755c-2.166,9.221-1.882,17.067-.653,22.206a33.029,33.029,0,0,0,1.925,5.766l.688,1.418a2.885,2.885,0,0,0,.241.49Z" transform="translate(-375.543 -204.38)" fill="#263238"/>
      <path id="Path_46" data-name="Path 46" d="M437.841,256.535s6.222-17.883-3.575-28.78a.627.627,0,0,0-1.083.284C432.548,231,431.585,240.061,437.841,256.535Z" transform="translate(-377.595 -207.638)" fill="#ff725e"/>
      <path id="Path_47" data-name="Path 47" d="M435.579,234.84a16.11,16.11,0,0,0,.275,3.343c.292,2.3.645,5.019,1.031,8.009l1.014,8a18.282,18.282,0,0,0,.5,3.317,14.415,14.415,0,0,0,0-3.36c-.12-2.071-.4-4.916-.808-8.052s-.859-5.955-1.246-7.992A15.405,15.405,0,0,0,435.579,234.84Z" transform="translate(-377.996 -208.664)" fill="#263238"/>
      <path id="Path_48" data-name="Path 48" d="M426.524,306.711s-2.862-18.717-16.62-23.761a.619.619,0,0,0-.859.748C409.9,286.619,413.3,295.075,426.524,306.711Z" transform="translate(-374.261 -215.422)" fill="#ff725e"/>
      <path id="Path_49" data-name="Path 49" d="M414.28,288.69a17,17,0,0,0,1.8,2.827l4.666,6.591,4.641,6.6a17.445,17.445,0,0,0,1.985,2.707,13.947,13.947,0,0,0-1.573-2.973c-1.074-1.779-2.647-4.168-4.477-6.746s-3.549-4.855-4.838-6.48A14.614,14.614,0,0,0,414.28,288.69Z" transform="translate(-375.001 -216.238)" fill="#263238"/>
      <path id="Path_50" data-name="Path 50" d="M430.41,360.536s2.69-18.742-9.006-27.568a.627.627,0,0,0-1.014.473C420.338,336.474,421.12,345.558,430.41,360.536Z" transform="translate(-375.86 -222.447)" fill="#ff725e"/>
      <path id="Path_51" data-name="Path 51" d="M424,339.7a17.474,17.474,0,0,0,.911,3.231l2.578,7.665,2.526,7.665a17.52,17.52,0,0,0,1.117,3.154,14.507,14.507,0,0,0-.636-3.3c-.516-2-1.332-4.752-2.337-7.734s-1.985-5.68-2.741-7.605A14.557,14.557,0,0,0,424,339.7Z" transform="translate(-376.368 -223.412)" fill="#263238"/>
      <path id="Path_52" data-name="Path 52" d="M416.334,414.844s2.02-18.829-9.986-27.233a.627.627,0,0,0-.988.516C405.412,391.16,406.52,400.209,416.334,414.844Z" transform="translate(-373.747 -230.135)" fill="#ff725e"/>
      <path id="Path_53" data-name="Path 53" d="M409.14,394.26a15.819,15.819,0,0,0,1.023,3.188c.808,2.183,1.762,4.743,2.819,7.571l2.793,7.571A17.506,17.506,0,0,0,417,415.709a14.052,14.052,0,0,0-.756-3.274c-.584-1.994-1.5-4.709-2.578-7.665s-2.191-5.6-3.016-7.5a15.542,15.542,0,0,0-1.513-3.008Z" transform="translate(-374.278 -231.086)" fill="#263238"/>
      <path id="Path_54" data-name="Path 54" d="M448.71,239.269s17.05-8.233,17.849-22.867a.627.627,0,0,0-.963-.567C463.044,217.475,455.954,223.2,448.71,239.269Z" transform="translate(-379.844 -205.977)" fill="#ff725e"/>
      <path id="Path_55" data-name="Path 55" d="M462.943,222.24a16.194,16.194,0,0,0-2.174,2.578l-4.907,6.368-4.959,6.368a17.941,17.941,0,0,0-1.994,2.7,14.152,14.152,0,0,0,2.38-2.372c1.384-1.547,3.205-3.755,5.156-6.265s3.6-4.821,4.778-6.523a15.478,15.478,0,0,0,1.719-2.853Z" transform="translate(-379.872 -206.892)" fill="#263238"/>
      <path id="Path_56" data-name="Path 56" d="M426.32,283.917s17.522-7.176,19.207-21.733a.627.627,0,0,0-.928-.627C441.952,263.044,434.527,268.32,426.32,283.917Z" transform="translate(-376.695 -212.411)" fill="#ff725e"/>
      <path id="Path_57" data-name="Path 57" d="M441.613,267.75a16.757,16.757,0,0,0-2.329,2.423l-5.311,6.076c-1.994,2.269-3.8,4.3-5.328,6.067a18.667,18.667,0,0,0-2.166,2.578,13.953,13.953,0,0,0,2.527-2.217c1.47-1.461,3.438-3.558,5.5-5.938s3.893-4.6,5.156-6.23A14.8,14.8,0,0,0,441.613,267.75Z" transform="translate(-376.717 -213.293)" fill="#263238"/>
      <path id="Path_58" data-name="Path 58" d="M436.3,333.643s12.323-14.377,7.193-28.1a.627.627,0,0,0-1.109-.137C440.708,307.931,436.5,316.018,436.3,333.643Z" transform="translate(-378.098 -218.55)" fill="#ff725e"/>
      <path id="Path_59" data-name="Path 59" d="M442.159,312.56a16.932,16.932,0,0,0-.928,3.214c-.567,2.252-1.229,4.9-1.959,7.829s-1.418,5.569-1.985,7.82a18.654,18.654,0,0,0-.756,3.266,14.027,14.027,0,0,0,1.238-3.119c.645-1.977,1.427-4.727,2.191-7.794s1.366-5.861,1.719-7.9A15.1,15.1,0,0,0,442.159,312.56Z" transform="translate(-378.131 -219.595)" fill="#263238"/>
      <path id="Path_60" data-name="Path 60" d="M420.75,393.4s17.4-7.468,18.828-22.051a.619.619,0,0,0-.928-.61C436.029,372.266,428.7,377.662,420.75,393.4Z" transform="translate(-375.911 -227.765)" fill="#ff725e"/>
      <path id="Path_61" data-name="Path 61" d="M435.751,377a17,17,0,0,0-2.286,2.458l-5.208,6.136-5.233,6.144a19.568,19.568,0,0,0-2.114,2.578,13.624,13.624,0,0,0,2.484-2.26c1.452-1.487,3.369-3.609,5.405-6.015s3.807-4.658,5.062-6.308A14.97,14.97,0,0,0,435.751,377Z" transform="translate(-375.934 -228.658)" fill="#263238"/>
      <path id="Path_62" data-name="Path 62" d="M383.747,309.29a1.382,1.382,0,0,0,0,.412v1.212c0,1.134,0,2.673.06,4.6.094,4.039.223,9.668.378,16.414h0c1.005,6.875,4.254,14.609,8.705,22.1,3.265,5.543,6.711,10.587,9.668,15.279a105.656,105.656,0,0,1,7.184,12.847,52.891,52.891,0,0,1,3.265,9.341c.266,1.134.464,2.028.576,2.638a4.591,4.591,0,0,0,.224.92,4.31,4.31,0,0,0-.077-.945c-.069-.619-.223-1.521-.447-2.673a48.776,48.776,0,0,0-3.085-9.453,100.48,100.48,0,0,0-7.107-12.951c-2.939-4.726-6.368-9.779-9.616-15.288-4.426-7.485-7.666-15.064-8.722-21.845v.043c-.258-6.737-.481-12.375-.636-16.414-.095-1.916-.163-3.437-.223-4.589,0-.481-.06-.859-.086-1.2S383.765,309.281,383.747,309.29Z" transform="translate(-370.705 -219.135)" fill="#263238"/>
      <path id="Path_63" data-name="Path 63" d="M393.673,354.979s-6.712-17.7,2.784-28.866a.627.627,0,0,1,1.091.249C398.262,329.31,399.474,338.341,393.673,354.979Z" transform="translate(-371.779 -221.469)" fill="#ff725e"/>
      <path id="Path_64" data-name="Path 64" d="M396.045,333.22a14.612,14.612,0,0,0-.679,3.291c-.327,2.045-.7,4.881-1.031,8.026s-.516,6.016-.584,8.069a14.607,14.607,0,0,0,.095,3.36,18.246,18.246,0,0,0,.4-3.326c.232-2.32.5-5.036.791-8.035s.584-5.715.816-8.035A16.819,16.819,0,0,0,396.045,333.22Z" transform="translate(-372.106 -222.501)" fill="#263238"/>
      <g id="Group_1" data-name="Group 1" transform="translate(19.592 104.417)" opacity="0.3">
        <path id="Path_65" data-name="Path 65" d="M393.673,354.979s-6.712-17.7,2.784-28.866a.627.627,0,0,1,1.091.249C398.262,329.31,399.474,338.341,393.673,354.979Z" transform="translate(-391.371 -325.886)"/>
      </g>
      <path id="Path_66" data-name="Path 66" d="M418.452,404.877s-5.251-18.193,5.113-28.548a.636.636,0,0,1,1.074.335C425.112,379.664,425.611,388.765,418.452,404.877Z" transform="translate(-375.401 -228.538)" fill="#ff725e"/>
      <path id="Path_67" data-name="Path 67" d="M422.524,383.34a14.7,14.7,0,0,0-.945,3.223c-.49,2.011-1.091,4.8-1.676,7.915s-1.005,5.938-1.237,7.992a13.5,13.5,0,0,0-.172,3.36,19.121,19.121,0,0,0,.67-3.283c.412-2.286.9-4.976,1.435-7.94s1.048-5.655,1.47-7.94A16.748,16.748,0,0,0,422.524,383.34Z" transform="translate(-375.589 -229.55)" fill="#263238"/>
      <g id="Group_2" data-name="Group 2" transform="translate(41.721 147.606)" opacity="0.3">
        <path id="Path_68" data-name="Path 68" d="M418.452,404.877s-5.251-18.193,5.113-28.548a.636.636,0,0,1,1.074.335C425.112,379.664,425.611,388.765,418.452,404.877Z" transform="translate(-417.122 -376.144)"/>
      </g>
      <path id="Path_69" data-name="Path 69" d="M381.89,330.227s-15.159-11.344-13.131-25.858a.627.627,0,0,1,1.04-.4C372,306.1,377.869,313.075,381.89,330.227Z" transform="translate(-368.573 -218.365)" fill="#ff725e"/>
      <g id="Group_3" data-name="Group 3" transform="translate(0 85.45)" opacity="0.3">
        <path id="Path_70" data-name="Path 70" d="M381.89,330.227s-15.159-11.344-13.131-25.858a.627.627,0,0,1,1.04-.4C372,306.1,377.869,313.075,381.89,330.227Z" transform="translate(-368.573 -303.815)"/>
      </g>
      <path id="Path_71" data-name="Path 71" d="M371.85,310.89a15.52,15.52,0,0,0,1.195,3.145c.859,1.9,2.028,4.495,3.437,7.322s2.776,5.337,3.833,7.124a14.525,14.525,0,0,0,1.891,2.784,18.224,18.224,0,0,0-1.452-3.025l-3.618-7.2c-1.358-2.7-2.578-5.156-3.618-7.218A16.822,16.822,0,0,0,371.85,310.89Z" transform="translate(-369.034 -219.36)" fill="#263238"/>
      <path id="Path_72" data-name="Path 72" d="M408.247,385.591s-18.6-3.515-23.2-17.428a.627.627,0,0,1,.773-.808C388.731,368.284,397.075,371.962,408.247,385.591Z" transform="translate(-370.884 -227.298)" fill="#ff725e"/>
      <g id="Group_4" data-name="Group 4" transform="translate(14.125 140.031)" opacity="0.3">
        <path id="Path_73" data-name="Path 73" d="M408.247,385.591s-18.6-3.515-23.2-17.428a.627.627,0,0,1,.773-.808C388.731,368.284,397.075,371.962,408.247,385.591Z" transform="translate(-385.009 -367.329)"/>
      </g>
      <path id="Path_74" data-name="Path 74" d="M390.66,372.72a14.816,14.816,0,0,0,2.449,2.294c1.581,1.341,3.8,3.137,6.316,5.053s4.847,3.575,6.583,4.709a14.153,14.153,0,0,0,2.913,1.676,17.369,17.369,0,0,0-2.63-2.08l-6.437-4.864-6.437-4.89A16.34,16.34,0,0,0,390.66,372.72Z" transform="translate(-371.679 -228.056)" fill="#263238"/>
      <path id="Path_75" data-name="Path 75" d="M426.947,429.146l2.922,25.093H398.88l3.936-25.849Z" transform="translate(-372.835 -235.886)" fill="#455a64"/>
      <path id="Path_76" data-name="Path 76" d="M401.46,441.55c0,.2,6.127.55,13.7.791s13.75.275,13.75.077-6.127-.541-13.7-.782S401.469,441.361,401.46,441.55Z" transform="translate(-373.198 -237.72)" fill="#263238"/>
      <path id="Path_77" data-name="Path 77" d="M400.57,444.977c0,.2,6.325.55,14.145.8s14.162.292,14.171.095-6.333-.55-14.154-.8S400.579,444.736,400.57,444.977Z" transform="translate(-373.073 -238.199)" fill="#263238"/>
    </g>
    <g id="freepik--Hearts--inject-37" transform="translate(72.042 80.368)">
      <path id="Path_78" data-name="Path 78" d="M136.971,220.909a7.193,7.193,0,0,0-2.844-3.248,6.927,6.927,0,0,0-4.065-1.152,5.663,5.663,0,0,0-3.953,2.011,5.586,5.586,0,0,0-1.169,2.423,5.6,5.6,0,0,0-2.08-1.272,5.672,5.672,0,0,0-4.426.361,6.875,6.875,0,0,0-2.853,3.119,7.158,7.158,0,0,0-.713,4.254,8.765,8.765,0,0,0,2.518,4.881,12.383,12.383,0,0,0,5.156,2.673c3.137.859,7.236,1.873,7.236,1.873s2.346-3.076,4.563-5.448a12.35,12.35,0,0,0,3.016-5A8.74,8.74,0,0,0,136.971,220.909Z" transform="translate(-83.387 -107.022)" fill="#ff725e"/>
      <path id="Path_79" data-name="Path 79" d="M429.743,111.581a12.031,12.031,0,0,0,.224-7.227,11.559,11.559,0,0,0-3.687-6.015,9.307,9.307,0,0,0-11.326-.4,9.39,9.39,0,0,0-1.109-3.936A9.5,9.5,0,0,0,408,89.41a11.558,11.558,0,0,0-7.055.567,12.031,12.031,0,0,0-5.723,4.417,14.694,14.694,0,0,0-2.475,8.851,20.719,20.719,0,0,0,3.317,9.2c2.879,4.615,6.746,10.544,6.746,10.544s6.394-1.1,11.816-1.478a20.728,20.728,0,0,0,9.4-2.716,14.61,14.61,0,0,0,5.715-7.219Z" transform="translate(-122.478 -89.103)" fill="#ff725e"/>
      <path id="Path_80" data-name="Path 80" d="M379.778,229.175a6.377,6.377,0,0,0-.5-3.781,6.1,6.1,0,0,0-2.423-2.836,4.907,4.907,0,0,0-5.93.748,4.881,4.881,0,0,0-.911-1.959,4.975,4.975,0,0,0-3.437-1.9,6.153,6.153,0,0,0-3.626.859,6.367,6.367,0,0,0-2.578,2.784,7.673,7.673,0,0,0-.541,4.812,10.845,10.845,0,0,0,2.5,4.512c1.882,2.166,4.391,4.924,4.391,4.924s3.24-1.109,6.016-1.762a11.094,11.094,0,0,0,4.666-2.2,7.786,7.786,0,0,0,2.372-4.2Z" transform="translate(-117.827 -107.433)" fill="#ff725e"/>
      <path id="Path_81" data-name="Path 81" d="M140.291,272.121a3.016,3.016,0,0,0-1.117-1.435,2.963,2.963,0,0,0-1.676-.576,2.372,2.372,0,0,0-2.26,1.719,2.286,2.286,0,0,0-.859-.584,2.346,2.346,0,0,0-1.865.052,2.853,2.853,0,0,0-1.272,1.237,3.059,3.059,0,0,0-.4,1.77,3.721,3.721,0,0,0,.945,2.114,5.267,5.267,0,0,0,2.114,1.246c1.3.43,3,.954,3,.954s1.057-1.237,2.045-2.183a5.157,5.157,0,0,0,1.384-2.028A3.669,3.669,0,0,0,140.291,272.121Z" transform="translate(-85.642 -114.561)" fill="#ff725e"/>
      <path id="Path_82" data-name="Path 82" d="M87.745,306.332a3.068,3.068,0,0,0-1.117-1.426,2.99,2.99,0,0,0-1.719-.576,2.407,2.407,0,0,0-1.719.756,2.372,2.372,0,0,0-.541.988,2.252,2.252,0,0,0-.859-.584,2.346,2.346,0,0,0-1.865.052,2.9,2.9,0,0,0-1.272,1.237,2.99,2.99,0,0,0-.4,1.77,3.721,3.721,0,0,0,.945,2.114,5.217,5.217,0,0,0,2.114,1.246c1.3.43,2.991.954,2.991.954s1.066-1.237,2.054-2.183a5.156,5.156,0,0,0,1.375-2.028A3.67,3.67,0,0,0,87.745,306.332Z" transform="translate(-78.246 -119.374)" fill="#ff725e"/>
      <path id="Path_83" data-name="Path 83" d="M391.809,267.5a3.041,3.041,0,0,0-1.117-1.427,2.913,2.913,0,0,0-1.719-.584,2.372,2.372,0,0,0-2.251,1.719,2.329,2.329,0,0,0-2.707-.533,2.921,2.921,0,0,0-1.28,1.237,3.118,3.118,0,0,0-.4,1.77,3.694,3.694,0,0,0,.945,2.114,5.215,5.215,0,0,0,2.114,1.246c1.3.43,3,.954,3,.954s1.057-1.238,2.045-2.183a5.216,5.216,0,0,0,1.384-2.028A3.73,3.73,0,0,0,391.809,267.5Z" transform="translate(-121.015 -113.911)" fill="#ff725e"/>
    </g>
    <g id="freepik--Characters--inject-37" transform="translate(106.749 130.043)">
      <path id="Path_84" data-name="Path 84" d="M186.065,172.867c-6.316-3.437-16.122-3.437-23,6.144-7.055,9.805-4.46,17.445-2.7,25.471.945,4.3,2.965,8.894,1.229,12.968-1.856,4.374-7.133,6.015-10.613,9.238a14.222,14.222,0,0,0-3.231,15.752c2.492,5.612,8.594,9.307,10.08,15.253,1.289,5.07-1.177,10.415-4.623,14.351s-7.863,6.918-11.524,10.639-6.763,8.594-6.462,13.75c.4,6.875,6.351,12.031,11.911,16.087,3.343,2.466,6.789,4.916,10.708,6.29,9.2,3.231,33.558,7.262,42.452,3.266,13.294-6.015,21.286-18.467,30-30.155,10.476-14.059,17.032-42.968.713-60.559" transform="translate(-120.963 -150.265)" fill="#263238"/>
      <path id="Path_85" data-name="Path 85" d="M140.736,309.383a11.614,11.614,0,0,1-.653-1.272,9.392,9.392,0,0,1-.963-4c0-1.839,1.143-3.927,2.939-5.723a24.186,24.186,0,0,1,7.141-4.83c2.887-1.392,6.222-2.475,9.685-3.893s7.107-3.24,9.848-6.411a13.672,13.672,0,0,0,3.016-5.526,11.319,11.319,0,0,0-.352-6.505,31.129,31.129,0,0,0-3.119-6.179,40.449,40.449,0,0,1-3.437-6.376,13.973,13.973,0,0,1-1.057-7.184,8.027,8.027,0,0,1,1.341-3.36,10.047,10.047,0,0,1,2.578-2.466c1.908-1.341,3.979-2.277,5.637-3.678a8.594,8.594,0,0,0,3.008-5.371,12.666,12.666,0,0,0-.567-5.964,25.059,25.059,0,0,0-2.5-5.156c-1.968-3.18-4.159-5.9-6.015-8.482a46.516,46.516,0,0,1-7.081-13.32,22.977,22.977,0,0,1-1-3.987,8.146,8.146,0,0,1-.112-1.435s.052.49.223,1.418a25.406,25.406,0,0,0,1.083,3.936,47.358,47.358,0,0,0,7.193,13.165c1.891,2.578,4.108,5.276,6.11,8.473a25.334,25.334,0,0,1,2.578,5.259,13,13,0,0,1,.6,6.187,8.989,8.989,0,0,1-3.162,5.68c-1.719,1.469-3.816,2.415-5.655,3.721a9.324,9.324,0,0,0-2.415,2.337,7.348,7.348,0,0,0-1.246,3.145,13.509,13.509,0,0,0,1.023,6.875,40.616,40.616,0,0,0,3.437,6.282,31.8,31.8,0,0,1,3.162,6.3,11.791,11.791,0,0,1,.352,6.8,14.137,14.137,0,0,1-3.145,5.723c-2.836,3.257-6.6,5.079-10.054,6.5s-6.815,2.466-9.694,3.824a24.187,24.187,0,0,0-7.081,4.7,8.474,8.474,0,0,0-2.948,5.517,9.633,9.633,0,0,0,.859,3.953A11.526,11.526,0,0,1,140.736,309.383Z" transform="translate(-121.515 -154.13)" fill="#455a64"/>
      <path id="Path_86" data-name="Path 86" d="M162.154,195.952a1.469,1.469,0,0,1-.129-.413,11.374,11.374,0,0,1-.241-1.194,16.14,16.14,0,0,1,0-4.5,18.09,18.09,0,0,1,2.123-6.333,16.611,16.611,0,0,1,13.268-8.662,18.1,18.1,0,0,1,6.651.6,16.053,16.053,0,0,1,4.125,1.8,9.762,9.762,0,0,1,1,.7,1.872,1.872,0,0,1,.327.275,22.772,22.772,0,0,0-5.551-2.415,18.286,18.286,0,0,0-6.5-.481,16.405,16.405,0,0,0-12.89,8.422,18.09,18.09,0,0,0-2.174,6.144A22.345,22.345,0,0,0,162.154,195.952Z" transform="translate(-124.681 -150.826)" fill="#455a64"/>
      <path id="Path_87" data-name="Path 87" d="M238.826,187.152l42.744,74.162-30.937,23.331-18.786-26.9s-16.036,7.915-26.374-6.411a247.744,247.744,0,0,1-19.172-32.57c-8.765-18.046-3.583-33.042,11.576-42h0C212.787,167.98,229.94,172.337,238.826,187.152Z" transform="translate(-127.552 -150.473)" fill="#b78876"/>
      <path id="Path_88" data-name="Path 88" d="M239.52,268.476a41.1,41.1,0,0,0,15.082-18.6s2.862,13.526-12.478,22.343Z" transform="translate(-135.636 -161.39)" fill="#a36957"/>
      <path id="Path_89" data-name="Path 89" d="M229.289,206.479c-.438-.112-1.306,2.105-3.6,3.549s-4.709,1.358-4.778,1.8c0,.206.541.533,1.616.6a6.875,6.875,0,0,0,4.039-1.091,6.668,6.668,0,0,0,2.647-3.171C229.581,207.175,229.495,206.522,229.289,206.479Z" transform="translate(-133.019 -155.286)" fill="#263238"/>
      <path id="Path_90" data-name="Path 90" d="M202.769,221.709c-.438-.1-1.306,2.114-3.6,3.558s-4.709,1.358-4.778,1.8c0,.2.541.533,1.616.6a6.952,6.952,0,0,0,4.039-1.091,6.643,6.643,0,0,0,2.647-3.18C203.052,222.414,202.975,221.752,202.769,221.709Z" transform="translate(-129.289 -157.428)" fill="#263238"/>
      <path id="Path_91" data-name="Path 91" d="M228.06,241.551a2.647,2.647,0,0,1-1.083-1.934,7.734,7.734,0,0,1,.18-2.269,5.276,5.276,0,0,1,1.014-2.7,4.081,4.081,0,0,1,2.251-1.126,4.391,4.391,0,0,1,2.724.137,3.437,3.437,0,0,1,1.77,3.592,4.778,4.778,0,0,1-2.5,3.309,8.362,8.362,0,0,1-4.159.859" transform="translate(-133.87 -159.068)" fill="#a36957"/>
      <path id="Path_92" data-name="Path 92" d="M229.691,231.646c-.37.232,1.315,2.647.455,5.809s-3.618,4.7-3.437,5.053c.069.172.9.069,2-.67a7.279,7.279,0,0,0,2.93-4.073,6.368,6.368,0,0,0-.533-4.769C230.533,231.947,229.845,231.517,229.691,231.646Z" transform="translate(-133.833 -158.823)" fill="#263238"/>
      <path id="Path_93" data-name="Path 93" d="M226.8,199.544c-.507-.6-2.93.653-6.058,1.375s-5.844.782-6.015,1.547c-.069.361.584.859,1.8,1.186a10.819,10.819,0,0,0,9.2-2.226C226.674,200.584,226.992,199.836,226.8,199.544Z" transform="translate(-132.149 -154.289)" fill="#263238"/>
      <path id="Path_94" data-name="Path 94" d="M194.235,212.29c-.782-.052-1.538,1.77-3.008,3.48s-3.068,2.836-2.87,3.592c.1.352.765.533,1.719.3a6.643,6.643,0,0,0,4.735-5.7C194.923,212.952,194.6,212.333,194.235,212.29Z" transform="translate(-128.438 -156.103)" fill="#263238"/>
      <path id="Path_95" data-name="Path 95" d="M220.067,232.588c-.06-.138-1.633.37-4.116,1.289-.627.249-1.246.421-1.564.069a3.369,3.369,0,0,1-.516-1.959c-.2-1.719-.4-3.523-.61-5.423-.92-7.683-1.916-13.879-2.226-13.844s.189,6.308,1.109,13.99q.361,2.836.7,5.414a3.876,3.876,0,0,0,.859,2.484,1.718,1.718,0,0,0,1.427.361,5.252,5.252,0,0,0,1.083-.387C218.666,233.482,220.127,232.726,220.067,232.588Z" transform="translate(-131.617 -156.164)" fill="#263238"/>
      <path id="Path_96" data-name="Path 96" d="M251.614,218.269c-.739,4.3.086,9.152.232,13.543s1.8,9.032,5.5,11.369,9.221,2.432,10.965,6.411c.739,1.719.516,3.652,1.023,5.423a9.167,9.167,0,0,0,5.457,5.56,14.227,14.227,0,0,0,1.848.636l3.36,5.766c4.151,7.133,8.757,14.669,16.25,18.115a16.775,16.775,0,0,0,13.079.653,12.5,12.5,0,0,0,7.9-10.063c.3-3.395-1-6.737-1.048-10.14-.112-7.1,5.156-13.9,3.437-20.771-2.131-8.4-13.071-11.24-17.368-18.76-1.787-3.137-2.286-6.875-4.03-10.029-3.274-5.912-10.123-8.654-16.285-11.447a46.933,46.933,0,0,1-6.058-3.257,8.975,8.975,0,0,0,.859-.937,10.719,10.719,0,0,0,.7-11.627,14.162,14.162,0,0,0-9.874-6.746c-2.638-.481-5.508-.378-7.786-1.8-2.578-1.581-3.876-4.8-6.634-5.964-2.045-.859-4.374-.335-6.591-.249-4.9.2-10.166-3.309-16-7.365-4.168-3.437-8.851-6.437-14.171-6.72-6.316-.335-12.1,3.257-17.41,6.712-4.812,3.137-10.209,7.356-9.883,13.1h0c6.394,10.819,16.156,20.951,33.644,12.177,4.03-2.019,9.822-2.14,12.83,1.22,3.205,3.575,1.418,10.587,5.7,12.761a7.372,7.372,0,0,0,2.853.653,8.644,8.644,0,0,1,3.558,1.719S251.906,213.38,251.614,218.269Z" transform="translate(-128.541 -148.729)" fill="#263238"/>
      <path id="Path_97" data-name="Path 97" d="M260.58,206.029a3.261,3.261,0,0,0,.249-.791,3.437,3.437,0,0,0-.413-2.26,4.9,4.9,0,0,0-2.81-2.26,34.3,34.3,0,0,0-4.881-1.04,8.86,8.86,0,0,1-2.793-1.014,6.772,6.772,0,0,1-2.26-2.312c-1.186-1.916-1.719-4.3-2.578-6.523a16.4,16.4,0,0,0-11.576-9.754,15.794,15.794,0,0,0-4.1-.387,17.4,17.4,0,0,0-3.953.687c-2.578.739-4.881,1.839-7.2,2.7a24.662,24.662,0,0,1-6.875,1.59,24.06,24.06,0,0,1-6.11-.361,22.9,22.9,0,0,1-8.19-3.24,17.433,17.433,0,0,1-1.942-1.427,6.526,6.526,0,0,1-.619-.559,3.972,3.972,0,0,1,.687.473,22.553,22.553,0,0,0,1.985,1.332,23.512,23.512,0,0,0,8.147,3.042,23.88,23.88,0,0,0,6.015.292,24.58,24.58,0,0,0,6.7-1.607c2.286-.859,4.632-1.976,7.227-2.741a18.212,18.212,0,0,1,4.073-.713,16.164,16.164,0,0,1,4.245.4,16.817,16.817,0,0,1,11.911,10.1c.859,2.32,1.349,4.632,2.466,6.471a6.419,6.419,0,0,0,2.1,2.191,8.818,8.818,0,0,0,2.664,1,33.511,33.511,0,0,1,4.907,1.126,5.156,5.156,0,0,1,2.887,2.449,3.438,3.438,0,0,1,.327,2.38A1.934,1.934,0,0,1,260.58,206.029Z" transform="translate(-129.309 -151.433)" fill="#455a64"/>
      <path id="Path_98" data-name="Path 98" d="M236.07,170.706a1.721,1.721,0,0,1-.223-.43,9.022,9.022,0,0,0-.6-1.229,7.373,7.373,0,0,0-1.315-1.719,4.83,4.83,0,0,0-2.509-1.152c-2.088-.309-4.563.739-6.78,2.423s-4.993,3.291-7.8,5.01a29.484,29.484,0,0,1-16.268,3.807,26.922,26.922,0,0,1-5.053-.765c-.584-.138-1.031-.292-1.332-.387a2.009,2.009,0,0,1-.455-.18,15.341,15.341,0,0,1,1.83.37,31.8,31.8,0,0,0,5.027.584,30.077,30.077,0,0,0,15.984-3.893c2.784-1.719,5.483-3.308,7.734-4.941s4.89-2.784,7.133-2.4a4.976,4.976,0,0,1,2.647,1.306,6.823,6.823,0,0,1,1.3,1.8,7.476,7.476,0,0,1,.524,1.289A1.864,1.864,0,0,1,236.07,170.706Z" transform="translate(-129.196 -149.555)" fill="#455a64"/>
      <path id="Path_99" data-name="Path 99" d="M341.5,328.75c-9.513,4.3-13.586,6.29-23.1,7.425v.12l-12.65-30.37c1.349-1.255,2.9-2.776,4.632-4.64a19.154,19.154,0,0,0,3.549-5.474c1.057-2.441,2.32-5.741,2.458-7.734.163-2.5,3.283-3.5,4.5-1.581s.937,8.826-2.913,15.915,7.889,2.26,12.2.567Z" transform="translate(-144.951 -166.399)" fill="#ffbe9d"/>
      <path id="Path_100" data-name="Path 100" d="M250.149,286.449a28,28,0,0,1,19.241-10.656c6.823-.8,12.5-1.556,19.164,1.409,14.85,6.617,17.187,14.841,25.1,29.029,6.17,11.034,10.055,30.619,8.1,50.375-1.977,20.066-5.5,45.546-5.5,45.546l19.37,30.516H235.454V374.773L202.18,353.289Z" transform="translate(-130.385 -164.934)" fill="#455a64"/>
      <path id="Path_101" data-name="Path 101" d="M334.687,312.182l-4.976,9.358c-.808,1.521-1.959,3.257-3.678,3.223-1.573,0-2.724-1.676-2.793-3.248a9.557,9.557,0,0,1,1.349-4.46l5.637-11.386.318-1.057s1.813-3.1,3.953-2.028C336.448,303.554,337.23,307.4,334.687,312.182Z" transform="translate(-147.411 -168.771)" fill="#ffbe9d"/>
      <path id="Path_102" data-name="Path 102" d="M338.808,321.152q-2.475,4.675-4.967,9.358c-.808,1.521-1.959,3.257-3.687,3.223-1.573,0-2.716-1.676-2.784-3.24a9.453,9.453,0,0,1,1.341-4.469l5.646-11.386.318-1.057s1.8-3.1,3.953-2.028C340.578,312.524,341.352,316.365,338.808,321.152Z" transform="translate(-147.992 -170.033)" fill="#ffbe9d"/>
      <path id="Path_103" data-name="Path 103" d="M342.794,330.476l-4.718,8.877c-.765,1.435-1.856,3.085-3.489,3.051-1.487,0-2.578-1.581-2.647-3.076a8.98,8.98,0,0,1,1.28-4.228q2.664-5.4,5.345-10.793l.3-1.005s1.719-2.939,3.747-1.925C344.469,322.286,345.2,325.921,342.794,330.476Z" transform="translate(-148.635 -171.416)" fill="#ffbe9d"/>
      <path id="Path_104" data-name="Path 104" d="M346.788,335.373l-3.532,6.608c-.576,1.074-1.383,2.294-2.578,2.269a2.286,2.286,0,0,1-1.968-2.286,6.677,6.677,0,0,1,.954-3.154l3.979-8.043.223-.748s1.28-2.191,2.793-1.435S348.584,331.987,346.788,335.373Z" transform="translate(-149.587 -172.438)" fill="#ffbe9d"/>
      <path id="Path_105" data-name="Path 105" d="M335.255,310.763a9.187,9.187,0,0,1-.662,1.469l-1.976,3.936-3,5.8a6.952,6.952,0,0,1-2.475,3.076,2.681,2.681,0,0,1-2.183.18,3.437,3.437,0,0,1-1.719-1.426,5.157,5.157,0,0,1-.292-4.185,26.388,26.388,0,0,1,1.65-3.532c1.134-2.148,2.157-4.108,3.033-5.784s1.547-2.87,2.08-3.876a9.013,9.013,0,0,1,.859-1.384,9.061,9.061,0,0,1-.644,1.478l-1.934,3.962q-1.289,2.578-2.93,5.835a25.464,25.464,0,0,0-1.581,3.437,4.657,4.657,0,0,0,.2,3.79,2.449,2.449,0,0,0,3.214,1.057,6.686,6.686,0,0,0,2.277-2.844l3.1-5.749c.859-1.564,1.581-2.853,2.131-3.85A9.547,9.547,0,0,1,335.255,310.763Z" transform="translate(-147.326 -169.148)" fill="#eb996e"/>
      <path id="Path_106" data-name="Path 106" d="M339.3,320.366a8.592,8.592,0,0,1-.653,1.469c-.516,1.014-1.186,2.337-1.985,3.936l-3,5.8a6.952,6.952,0,0,1-2.475,3.076,2.681,2.681,0,0,1-2.183.18,3.438,3.438,0,0,1-1.719-1.427,5.156,5.156,0,0,1-.241-4.228,25.328,25.328,0,0,1,1.641-3.532c1.134-2.148,2.157-4.108,3.033-5.783s1.547-2.87,2.088-3.876a8.673,8.673,0,0,1,.859-1.384,9.063,9.063,0,0,1-.644,1.478l-1.934,3.961-2.922,5.835a25.478,25.478,0,0,0-1.59,3.437,4.666,4.666,0,0,0,.2,3.79,2.449,2.449,0,0,0,3.214,1.057,6.687,6.687,0,0,0,2.277-2.844c1.16-2.14,2.2-4.082,3.1-5.749l2.131-3.85A10.621,10.621,0,0,1,339.3,320.366Z" transform="translate(-147.898 -170.493)" fill="#eb996e"/>
      <path id="Path_107" data-name="Path 107" d="M343.983,327.59a11.722,11.722,0,0,1-.653,1.5l-1.8,4.065c-.756,1.719-1.633,3.781-2.758,6.015a8.191,8.191,0,0,1-2.372,3.205,2.741,2.741,0,0,1-2.174.4,3.36,3.36,0,0,1-1.856-1.306,4.984,4.984,0,0,1-.421-4.254,22.582,22.582,0,0,1,1.641-3.584c1.143-2.174,2.174-4.151,3.059-5.844s1.564-2.9,2.105-3.919a8.847,8.847,0,0,1,.859-1.4,9.834,9.834,0,0,1-.653,1.5l-1.951,4-2.965,5.9a21.874,21.874,0,0,0-1.573,3.5,4.494,4.494,0,0,0,.352,3.8,2.845,2.845,0,0,0,1.547,1.091,2.166,2.166,0,0,0,1.762-.318,7.588,7.588,0,0,0,2.208-2.99c1.143-2.191,2.054-4.228,2.853-5.93s1.47-3.068,1.968-4A7.741,7.741,0,0,1,343.983,327.59Z" transform="translate(-148.595 -171.598)" fill="#eb996e"/>
      <path id="Path_108" data-name="Path 108" d="M267.647,168.522l-3.291.318-18.313,36.411h0l-6.54,12.985a51.386,51.386,0,0,1-5.414,7.2c-7.614,8.336-29.7,20.178-29.7,20.178l42.486,23.323,22.61-15.615.06.052s16.431,7.047,26-7.812,28.531-50.891,28.531-50.891A61.384,61.384,0,0,0,267.647,168.522Z" transform="translate(-130.695 -149.907)" fill="#ffbe9d"/>
      <path id="Path_109" data-name="Path 109" d="M277.534,263.611a29.364,29.364,0,0,1-17.557-21.131,23.873,23.873,0,0,0,13.337,24.062Z" transform="translate(-138.494 -160.35)" fill="#eb996e"/>
      <path id="Path_110" data-name="Path 110" d="M262.36,187.676c-.18-.266-8.379-9.453-14.463.954s6.445,14.721,6.643,14.437S262.36,187.676,262.36,187.676Z" transform="translate(-136.58 -152.079)" fill="#ffbe9d"/>
      <path id="Path_111" data-name="Path 111" d="M253.45,197.518c0-.06-.258,0-.644,0a2.071,2.071,0,0,1-1.375-.765c-.859-1.048-.773-3.334.266-5.251a7,7,0,0,1,2.028-2.3,2.423,2.423,0,0,1,2.183-.6,1.074,1.074,0,0,1,.782,1.126c0,.369-.215.541-.172.593s.327-.043.5-.524a1.349,1.349,0,0,0,0-.859,1.555,1.555,0,0,0-.859-.859,2.973,2.973,0,0,0-2.844.507,7.191,7.191,0,0,0-2.329,2.578c-1.152,2.148-1.229,4.744,0,6.058a2.243,2.243,0,0,0,1.83.687C253.27,197.758,253.45,197.561,253.45,197.518Z" transform="translate(-137.123 -152.675)" fill="#eb996e"/>
      <path id="Path_112" data-name="Path 112" d="M314.254,215.309c.43-.146,1.478,1.985,3.893,3.223s4.812.945,4.915,1.375c.069.2-.49.576-1.555.739a6.875,6.875,0,0,1-4.116-.739,6.574,6.574,0,0,1-2.913-2.93C314.013,216.031,314.013,215.369,314.254,215.309Z" transform="translate(-146.125 -156.527)" fill="#263238"/>
      <path id="Path_113" data-name="Path 113" d="M287.968,199.9c.438-.12,1.358,2.071,3.7,3.437s4.735,1.237,4.821,1.719c.043.2-.524.55-1.6.645a6.969,6.969,0,0,1-4.073-.988,6.7,6.7,0,0,1-2.724-3.1C287.659,200.6,287.719,199.985,287.968,199.9Z" transform="translate(-142.423 -154.36)" fill="#263238"/>
      <path id="Path_114" data-name="Path 114" d="M295.66,228.194c.069-.137,1.659.507,4.159,1.667.627.3,1.255.533,1.607.2a3.55,3.55,0,0,0,.7-1.985q.516-2.655,1.066-5.569c1.581-7.88,3.111-14.214,3.437-14.145s-.7,6.514-2.277,14.394l-1.16,5.543a4,4,0,0,1-1.134,2.492,1.718,1.718,0,0,1-1.512.258,4.736,4.736,0,0,1-1.083-.49C297.043,229.225,295.591,228.331,295.66,228.194Z" transform="translate(-143.532 -155.551)" fill="#263238"/>
      <path id="Path_115" data-name="Path 115" d="M286.291,228.347c.387.215-1.169,2.716-.146,5.826s3.859,4.5,3.661,4.864c-.06.18-.859.112-2.037-.559a7.322,7.322,0,0,1-3.145-3.919,6.367,6.367,0,0,1,.275-4.8C285.466,228.673,286.128,228.227,286.291,228.347Z" transform="translate(-141.932 -158.359)" fill="#263238"/>
      <path id="Path_116" data-name="Path 116" d="M303.819,194.426c-.619.49-2.733-1.246-5.637-2.578s-5.551-2-5.551-2.784c0-.37.756-.722,2.011-.773a10.312,10.312,0,0,1,4.744,1.074,10.209,10.209,0,0,1,3.781,3.042C303.9,193.386,304.12,194.194,303.819,194.426Z" transform="translate(-143.106 -152.728)" fill="#263238"/>
      <path id="Path_117" data-name="Path 117" d="M327.631,212.154c-.73.266-1.976-1.272-3.867-2.492s-3.738-1.848-3.764-2.63c0-.37.584-.73,1.6-.782a6.651,6.651,0,0,1,6.153,4.125C328.086,211.329,327.975,212.051,327.631,212.154Z" transform="translate(-146.955 -155.254)" fill="#263238"/>
      <path id="Path_118" data-name="Path 118" d="M344.943,186.818A6.522,6.522,0,0,0,346,180.6a4.623,4.623,0,0,0-5.319-2.8,5.4,5.4,0,0,0-.455-8.009c-2.346-1.719-5.586-1.151-8.353-1.976a12.954,12.954,0,0,1-6.48-5.156c-1.65-2.252-2.956-4.8-4.692-7.03a22.592,22.592,0,0,0-31.53-4.1c-2.63-3.077-7.39-3.747-11.172-2.234s-6.557,4.83-8.284,8.482a37.314,37.314,0,0,0-2.5,7.794c-.12.189-.258.369-.369.567-5,8.327-10.132,18.579-6.651,20.831,6.059,3.936,11.825-8.516,11.825-8.516,9.333,1.8,13.586-11.172,16.534-11.739s9.367-2.037,20.057,15.855c4.159,6.952,12.34,11.936,17.4,13.75l.438.163h.266a16.8,16.8,0,0,0,5.113.859,9.453,9.453,0,0,0,5.637-1.615,5.156,5.156,0,0,0,2.08-5.225A11.292,11.292,0,0,0,344.943,186.818Z" transform="translate(-138.383 -146.908)" fill="#263238"/>
      <path id="Path_119" data-name="Path 119" d="M337.4,183.71a2.32,2.32,0,0,1-.722-.636,3.944,3.944,0,0,1-.756-2.63,4.4,4.4,0,0,1,.541-1.942,3.729,3.729,0,0,1,1.77-1.624A5.1,5.1,0,0,1,343.726,178a5.869,5.869,0,0,1,.791,6.746,7.64,7.64,0,0,1-6.823,3.859,11.567,11.567,0,0,1-8.026-3.575,22.852,22.852,0,0,1-5.156-8c-1.237-3.025-2.14-6.067-3.171-8.937a32.854,32.854,0,0,0-3.79-7.863l-.6-.859c-.206-.275-.447-.516-.67-.773l-.662-.756c-.241-.232-.473-.464-.722-.679a16.023,16.023,0,0,0-3.12-2.191,16.328,16.328,0,0,0-16.1.275,17.587,17.587,0,0,0-2.243,1.547,6.644,6.644,0,0,1-.748.593,12.607,12.607,0,0,1,2.879-2.312,16.422,16.422,0,0,1,9.711-2.423,16.766,16.766,0,0,1,9.943,4.159c.258.215.5.455.748.7l.687.773c.223.258.473.507.688.791s.4.567.619.859a33.143,33.143,0,0,1,3.884,7.966c1.04,2.887,1.942,5.921,3.171,8.911A22.342,22.342,0,0,0,330,184.629a11.172,11.172,0,0,0,7.665,3.437,7.193,7.193,0,0,0,6.428-3.575,5.474,5.474,0,0,0-.645-6.247,4.787,4.787,0,0,0-5.1-1.109,3.824,3.824,0,0,0-2.226,3.3,3.935,3.935,0,0,0,.653,2.578A7.645,7.645,0,0,0,337.4,183.71Z" transform="translate(-143.113 -147.71)" fill="#fafafa"/>
      <path id="Path_120" data-name="Path 120" d="M224.463,368.422l27.173-82.6-6.462-12.289L205.918,248.07c-1.435.954-47.264,18.734-61.014,60.567-9.857,30.017-15.718,91.8-15.718,91.8l-5.156,28.436H224.463V368.422" transform="translate(-119.393 -161.136)" fill="#ff725e"/>
      <g id="Group_5" data-name="Group 5" transform="translate(26.783 220.695)" opacity="0.2">
        <path id="Path_121" data-name="Path 121" d="M149.8,420.615c7.227,5.062,14.54,10.175,22.8,13.268s17.685,4,25.781.584c3.644-1.538,7.253-3.962,11.172-3.437,4.683.61,7.734,5.087,11.713,7.631,2.123,1.358,4.555,3.111,6.48,1.478l.146-7.047c-.1-8.92.155-28.359.155-28.359-.069-.971,0-.224-.335-.455-1.719-1.22-4.022-.249-5.62,1.143-7.433,6.48-13.681,14.609-22.558,18.906-7.674,3.721-16.611,4.125-25.007,2.716s-16.414-4.52-24.354-7.614" transform="translate(-149.8 -403.723)"/>
      </g>
      <path id="Path_122" data-name="Path 122" d="M228.727,284.347s-23.572,17.187-9.3,51.647,27.233,52.3,27.233,52.3l45.657-37.27-8.233-15.365a77.779,77.779,0,0,1-7.786-21.484c-1.951-9.78-6.72-24.878-18.141-33.515C251.2,275.444,241.024,276.844,228.727,284.347Z" transform="translate(-132.165 -165.281)" fill="#ff725e"/>
      <path id="Path_123" data-name="Path 123" d="M182.268,266.144a19.861,19.861,0,0,1,3.987.387,13.5,13.5,0,0,1,4.426,1.624,8.923,8.923,0,0,1,2.251,1.942,9.246,9.246,0,0,1,1.59,2.93,13.982,13.982,0,0,1,.387,7.537,13.749,13.749,0,0,1-4.4,7.451c-2.32,2.054-5.251,3.438-8.044,5.208a19.67,19.67,0,0,0-3.919,3.059,10.657,10.657,0,0,0-2.535,4.348c-.98,3.326-.636,6.815-.859,10.132a18.628,18.628,0,0,1-.859,4.855,16.945,16.945,0,0,1-2.1,4.237,17.961,17.961,0,0,1-6.479,5.784,16.156,16.156,0,0,1-7.339,1.8,17.479,17.479,0,0,1-6.153-1.091,16.9,16.9,0,0,1-4.159-2.209,15.518,15.518,0,0,1-2.234-1.968l-.507-.584c-.112-.138-.163-.206-.155-.215a21.818,21.818,0,0,0,3.016,2.578,17,17,0,0,0,4.142,2.1,17.249,17.249,0,0,0,6.015.988,15.785,15.785,0,0,0,7.141-1.8,17.505,17.505,0,0,0,6.273-5.663,16.7,16.7,0,0,0,2.853-8.851c.223-3.266-.137-6.78.859-10.252a11.06,11.06,0,0,1,2.664-4.555,19.947,19.947,0,0,1,4.03-3.145c2.827-1.719,5.732-3.145,7.992-5.156a13.226,13.226,0,0,0,4.3-7.167,13.578,13.578,0,0,0-.309-7.322,8.989,8.989,0,0,0-1.487-2.836,8.824,8.824,0,0,0-2.148-1.9,13.549,13.549,0,0,0-4.3-1.719c-1.255-.275-2.243-.378-2.913-.464l-.773-.086A.861.861,0,0,1,182.268,266.144Z" transform="translate(-122.366 -163.673)" fill="#fafafa"/>
      <path id="Path_124" data-name="Path 124" d="M213.19,257.491a2.89,2.89,0,0,1,.4-.206,8.03,8.03,0,0,1,1.255-.4,8.826,8.826,0,0,1,4.812.275,7.192,7.192,0,0,1,2.836,1.83,7.012,7.012,0,0,1,1.719,3.48,6.264,6.264,0,0,1-.619,4.237,6.583,6.583,0,0,1-3.6,2.862,8.224,8.224,0,0,1-8.362-1.822,7.081,7.081,0,0,1-1.9-6.754,6.359,6.359,0,0,1,2.948-3.773,5.53,5.53,0,0,1,1.22-.507,1.619,1.619,0,0,1,.455-.069,13.872,13.872,0,0,0-1.573.748,6.351,6.351,0,0,0-2.681,3.7,6.7,6.7,0,0,0,1.882,6.3,7.734,7.734,0,0,0,7.829,1.667,6.015,6.015,0,0,0,3.317-2.578,5.861,5.861,0,0,0,.6-3.893,6.643,6.643,0,0,0-1.564-3.266,7,7,0,0,0-2.647-1.779,8.963,8.963,0,0,0-4.632-.421C213.783,257.285,213.207,257.542,213.19,257.491Z" transform="translate(-131.418 -162.341)" fill="#fafafa"/>
      <path id="Path_125" data-name="Path 125" d="M231.483,368.4a6.014,6.014,0,0,0,1.237,1.246,6.454,6.454,0,0,0,4.778,1.048,12.608,12.608,0,0,0,6.729-4,21.262,21.262,0,0,0,2.956-3.987,22.2,22.2,0,0,0,2.02-5.156A20.384,20.384,0,0,0,248.412,345a24.32,24.32,0,0,0-3.721-6.015c-1.512-1.942-3.2-3.867-4.623-6.084a15.1,15.1,0,0,1-2.578-7.605,35.829,35.829,0,0,1,.859-8.353,30.808,30.808,0,0,0,.713-8.525,19.653,19.653,0,0,0-5.4-11.8,18.3,18.3,0,0,0-3.437-2.681,14.085,14.085,0,0,0-8.2-2.019,16.566,16.566,0,0,0-4.065.756,17.336,17.336,0,0,0-3.669,1.719,15.524,15.524,0,0,0-2.973,2.621,11.9,11.9,0,0,0-1.985,3.317,23.667,23.667,0,0,0-1.281,7.4,28.738,28.738,0,0,1-1.048,7.15,22.282,22.282,0,0,1-3.291,5.9c-1.263,1.719-2.535,3.377-3.558,5.053a13.226,13.226,0,0,0-1.951,5.156,12.031,12.031,0,0,0,.352,4.907,13.019,13.019,0,0,0,1.951,3.824,12.042,12.042,0,0,0,1.28,1.409l.653.6.679.5a13.043,13.043,0,0,0,4.589,2.011c.567.112,1.005.146,1.3.206l.447.077a2.9,2.9,0,0,1-.447,0,9.319,9.319,0,0,1-1.323-.155A12.538,12.538,0,0,1,203,342.409l-.7-.49-.679-.6A11.885,11.885,0,0,1,198.277,336a12.16,12.16,0,0,1-.4-5.036,13.5,13.5,0,0,1,1.968-5.3c1.014-1.719,2.294-3.351,3.541-5.1a21.894,21.894,0,0,0,3.205-5.792,28.581,28.581,0,0,0,1-7.047,24.431,24.431,0,0,1,1.289-7.554,12.7,12.7,0,0,1,2.062-3.437,15.309,15.309,0,0,1,3.085-2.724A17.61,17.61,0,0,1,217.8,292.2a16.83,16.83,0,0,1,4.2-.791,15.474,15.474,0,0,1,4.34.37,16.326,16.326,0,0,1,4.1,1.667,18.285,18.285,0,0,1,3.532,2.776,19.848,19.848,0,0,1,2.767,3.6,20.247,20.247,0,0,1,2.776,8.516,31.22,31.22,0,0,1-.722,8.671,35.758,35.758,0,0,0-.859,8.224,14.755,14.755,0,0,0,2.509,7.373c2.793,4.3,6.651,7.734,8.344,12.229a20.719,20.719,0,0,1,.748,12.8,22.69,22.69,0,0,1-2.088,5.259,21.043,21.043,0,0,1-3.042,4.039,12.778,12.778,0,0,1-6.875,4,6.5,6.5,0,0,1-4.873-1.169,4.953,4.953,0,0,1-.937-.945A3.67,3.67,0,0,1,231.483,368.4Z" transform="translate(-129.764 -167.227)" fill="#fafafa"/>
      <path id="Path_126" data-name="Path 126" d="M276.532,302.849a1.669,1.669,0,0,1-.249.43,6.63,6.63,0,0,1-.859,1.117,10.578,10.578,0,0,1-4.46,2.767,11.5,11.5,0,0,1-7.734-.232,14.232,14.232,0,0,1-7.167-6.222,17.729,17.729,0,0,1-2.234-9.255,14.1,14.1,0,0,1,2.011-7.519,6.5,6.5,0,0,1,4.357-2.845,4.449,4.449,0,0,1,1.435,0,1.426,1.426,0,0,1,.481.146,6.979,6.979,0,0,0-1.891,0,6.428,6.428,0,0,0-4.073,2.853,14.017,14.017,0,0,0-1.822,7.313,17.488,17.488,0,0,0,2.2,8.98A13.921,13.921,0,0,0,263.4,306.4a11.24,11.24,0,0,0,7.451.335,10.878,10.878,0,0,0,4.426-2.578C276.12,303.4,276.489,302.815,276.532,302.849Z" transform="translate(-137.647 -165.772)" fill="#fafafa"/>
      <path id="Path_127" data-name="Path 127" d="M288.179,335.752a7.192,7.192,0,0,0-1.616-1.435,6.7,6.7,0,0,0-5.655-.4c-2.329.859-4.426,3.291-5.474,6.411s-1.143,6.875-1.6,10.69-1.074,7.468-1.358,10.793a38.671,38.671,0,0,0,.094,8.826,24.061,24.061,0,0,0,1.5,5.749c.533,1.306.92,1.985.859,2.011a2.582,2.582,0,0,1-.318-.473,14.7,14.7,0,0,1-.756-1.452,22.344,22.344,0,0,1-1.676-5.783,37.509,37.509,0,0,1-.206-8.92c.258-3.351.859-6.987,1.315-10.819s.507-7.554,1.659-10.785,3.334-5.732,5.818-6.608a6.8,6.8,0,0,1,5.9.593,4.926,4.926,0,0,1,1.212,1.117,1.822,1.822,0,0,1,.309.49Z" transform="translate(-140.176 -173.1)" fill="#fafafa"/>
      <path id="Path_128" data-name="Path 128" d="M128,427.306s.18.481.619,1.349a15.905,15.905,0,0,0,2.38,3.506,13.808,13.808,0,0,0,2.294,2.011,7.279,7.279,0,0,0,3.334,1.263,7.373,7.373,0,0,0,3.962-.971,43.6,43.6,0,0,0,4.116-2.286c2.81-1.719,5.947-3.781,9.848-4.6s8.078-.954,12.083-2.681a20.847,20.847,0,0,0,9.633-9.247,35.541,35.541,0,0,0,3.85-14.042,39.014,39.014,0,0,0-1.109-14.549,20.856,20.856,0,0,0-3.016-6.213,15.467,15.467,0,0,0-4.9-4.391c-1.882-1.1-3.867-1.925-5.672-3.008a15.211,15.211,0,0,1-4.537-4.065c-2.372-3.171-3.652-6.634-5.062-9.616a25.16,25.16,0,0,0-4.761-7.459,11.643,11.643,0,0,0-5.758-3.214,8.472,8.472,0,0,0-4.185.1c-.928.3-1.358.584-1.375.55a5.363,5.363,0,0,1,1.341-.653,8.439,8.439,0,0,1,4.3-.206,11.764,11.764,0,0,1,5.93,3.205,25.368,25.368,0,0,1,4.89,7.511c1.435,2.991,2.733,6.428,5.079,9.513a14.694,14.694,0,0,0,4.426,3.927c1.762,1.057,3.747,1.873,5.672,2.982a16.043,16.043,0,0,1,5.062,4.52,21.371,21.371,0,0,1,3.111,6.359,39.47,39.47,0,0,1,1.143,14.755,36.4,36.4,0,0,1-3.927,14.248,21.4,21.4,0,0,1-9.9,9.453,25.719,25.719,0,0,1-6.239,1.659c-2.054.335-4.056.584-5.947,1.005-3.816.773-6.875,2.784-9.745,4.477a43.024,43.024,0,0,1-4.168,2.277,14,14,0,0,1-2.054.791c-.18.043-.352.1-.524.129l-.524.06a5.877,5.877,0,0,1-1.031,0A7.408,7.408,0,0,1,133.2,434.4a13.187,13.187,0,0,1-2.312-2.08,14.917,14.917,0,0,1-2.32-3.6A7.579,7.579,0,0,1,128,427.306Z" transform="translate(-119.951 -175.29)" fill="#fafafa"/>
      <path id="Path_129" data-name="Path 129" d="M292,351.16l-.206.189-.627.541-2.466,2.062-9.35,7.734-32.827,26.941-.206.172-.146-.215c-1.719-2.466-3.291-5.156-4.864-7.855s-3.137-5.543-4.718-8.422c-3.137-5.775-6.247-11.833-9.315-18.107-2.982-6.093-5.775-12.1-8.327-17.961-1.263-2.939-2.492-5.835-3.558-8.722-.541-1.444-1.04-2.887-1.461-4.3-.18-.739-.361-1.469-.533-2.191s-.266-1.469-.4-2.2a35.422,35.422,0,0,1,1.4-16.56,37.33,37.33,0,0,1,7.2-12.6,33.764,33.764,0,0,1,9.358-7.476,30.139,30.139,0,0,1,8.5-3.128,28.364,28.364,0,0,1,5.689-.559l1.5.086a2.184,2.184,0,0,1,.5.043h-1.994a30.145,30.145,0,0,0-5.646.653,30.834,30.834,0,0,0-8.4,3.18,33.778,33.778,0,0,0-9.221,7.468,37.012,37.012,0,0,0-7.055,12.486,35.018,35.018,0,0,0-1.341,16.328c.129.713.258,1.435.4,2.166s.352,1.435.533,2.157c.413,1.435.911,2.862,1.444,4.3,1.074,2.879,2.3,5.766,3.566,8.688,2.578,5.852,5.345,11.851,8.327,17.935,3.068,6.265,6.17,12.332,9.3,18.1q2.363,4.3,4.7,8.413c1.564,2.724,3.111,5.38,4.812,7.829l-.352-.052c13.449-10.94,24.87-20.229,32.956-26.795l9.453-7.614,2.518-2,.653-.507C291.926,351.2,292,351.117,292,351.16Z" transform="translate(-131.849 -165.417)" fill="#263238"/>
      <path id="Path_130" data-name="Path 130" d="M337.495,400.751c-2.277-11.034-9.659-13.664-9.659-13.664l-1.719,13.543-19.765-8.086L290.935,370.51,258.46,397.064s25.884,26.64,36.763,27.766,36.548-.069,36.548-.069S339.763,411.785,337.495,400.751Z" transform="translate(-138.3 -178.357)" fill="#ffbe9d"/>
      <path id="Path_131" data-name="Path 131" d="M195.569,370l-20.075,23.942-42.873-6.2.077-.55,1.323-13.586c-12.787,1.873-14.781,11.739-15.357,18.614-.636,7.605,8.731,14.729,10.682,16.121v.344s43.38,23.469,63.042,17.024c9.126-2.991,31.349-26.322,31.349-26.322V388.124Z" transform="translate(-118.634 -178.285)" fill="#b78876"/>
      <path id="Path_132" data-name="Path 132" d="M201.62,363.11,235.375,388.8l1.822-3.051A420.859,420.859,0,0,1,217.759,346Z" transform="translate(-130.306 -174.909)" fill="#455a64"/>
      <path id="Path_133" data-name="Path 133" d="M151.526,301.741,156.5,311.1c.808,1.521,1.959,3.257,3.678,3.223,1.573,0,2.724-1.676,2.793-3.248a9.557,9.557,0,0,0-1.349-4.46q-2.819-5.7-5.637-11.386l-.318-1.057s-1.813-3.1-3.953-2.037C149.765,293.113,148.983,296.954,151.526,301.741Z" transform="translate(-123.034 -167.302)" fill="#b78876"/>
      <path id="Path_134" data-name="Path 134" d="M147.406,310.712q2.475,4.675,4.967,9.358c.808,1.521,1.856,3.764,3.584,3.73a3.669,3.669,0,0,0,3.188-3.3c.069-1.564-.945-3.506-1.641-4.915L151.857,304.2l-.318-1.057s-1.8-3.1-3.953-2.028C145.636,302.084,144.862,305.925,147.406,310.712Z" transform="translate(-122.454 -168.564)" fill="#b78876"/>
      <path id="Path_135" data-name="Path 135" d="M143.531,320.016l4.718,8.869c.765,1.444,1.856,3.094,3.489,3.059,1.487,0,2.578-1.59,2.647-3.077a8.98,8.98,0,0,0-1.28-4.228l-5.345-10.8-.3-1s-1.719-2.939-3.747-1.925C141.856,311.817,141.142,315.478,143.531,320.016Z" transform="translate(-121.922 -169.945)" fill="#b78876"/>
      <path id="Path_136" data-name="Path 136" d="M140.053,324.933l3.506,6.6c.576,1.074,1.384,2.3,2.578,2.277a2.286,2.286,0,0,0,1.968-2.286,6.677,6.677,0,0,0-.954-3.154l-3.979-8.044-.223-.748s-1.28-2.191-2.793-1.435C138.8,318.857,138.257,321.547,140.053,324.933Z" transform="translate(-121.486 -170.969)" fill="#b78876"/>
      <path id="Path_137" data-name="Path 137" d="M151,300.309a10.057,10.057,0,0,1,.859,1.383c.55.988,1.272,2.286,2.131,3.85s1.951,3.6,3.1,5.749a6.636,6.636,0,0,0,2.286,2.845,2.441,2.441,0,0,0,3.205-1.057,4.684,4.684,0,0,0,.2-3.8,25.826,25.826,0,0,0-1.581-3.437L158.27,300l-1.934-3.953a8.918,8.918,0,0,1-.645-1.487,9.446,9.446,0,0,1,.859,1.392l2.08,3.876,3.034,5.783a26.38,26.38,0,0,1,1.65,3.532,5.157,5.157,0,0,1-.249,4.228,3.369,3.369,0,0,1-1.719,1.418,2.681,2.681,0,0,1-2.183-.172,6.926,6.926,0,0,1-2.475-3.085l-3-5.792-2-3.927A9.451,9.451,0,0,1,151,300.309Z" transform="translate(-123.186 -167.674)" fill="#a36957"/>
      <path id="Path_138" data-name="Path 138" d="M147,309.92a11.281,11.281,0,0,1,.859,1.384l2.131,3.85,3.1,5.749a6.686,6.686,0,0,0,2.277,2.844,2.449,2.449,0,0,0,3.214-1.057,4.684,4.684,0,0,0,.2-3.8,26.481,26.481,0,0,0-1.59-3.437c-1.091-2.174-2.08-4.142-2.922-5.835l-1.933-3.953a8.921,8.921,0,0,1-.645-1.487,9.1,9.1,0,0,1,.859,1.392c.541,1,1.246,2.3,2.088,3.876l3.033,5.783a24.929,24.929,0,0,1,1.641,3.532,5.156,5.156,0,0,1-.284,4.168,3.369,3.369,0,0,1-1.719,1.418,2.681,2.681,0,0,1-2.183-.172,6.927,6.927,0,0,1-2.475-3.085l-3-5.792-1.977-3.936A8.479,8.479,0,0,1,147,309.92Z" transform="translate(-122.624 -169.027)" fill="#a36957"/>
      <path id="Path_139" data-name="Path 139" d="M142.37,317.159a7.354,7.354,0,0,1,.859,1.409c.5.928,1.169,2.295,1.968,4s1.719,3.738,2.853,5.93a7.735,7.735,0,0,0,2.209,2.991,2.2,2.2,0,0,0,1.719.318,2.845,2.845,0,0,0,1.547-1.091,4.5,4.5,0,0,0,.352-3.8,22.347,22.347,0,0,0-1.573-3.506c-1.109-2.191-2.105-4.185-2.965-5.9l-1.951-4a11.172,11.172,0,0,1-.653-1.5,8.854,8.854,0,0,1,.859,1.4c.541,1.014,1.246,2.329,2.105,3.919s1.916,3.669,3.059,5.844a22.246,22.246,0,0,1,1.641,3.584,4.984,4.984,0,0,1-.421,4.254,3.437,3.437,0,0,1-1.856,1.306,2.715,2.715,0,0,1-2.174-.4,8.1,8.1,0,0,1-2.372-3.2c-1.126-2.226-2-4.3-2.759-6.015l-1.8-4.065A11.734,11.734,0,0,1,142.37,317.159Z" transform="translate(-121.972 -170.13)" fill="#a36957"/>
    </g>
  </g>
</svg>
