<svg xmlns="http://www.w3.org/2000/svg" width="223.49" height="223.897" viewBox="0 0 223.49 223.897">
  <g id="Sent_Message-pana" data-name="Sent Message-pana" transform="translate(-37 -46.704)">
    <g id="freepik--background-complete--inject-46" transform="translate(41.591 46.704)">
      <rect id="Rectangle_42" data-name="Rectangle 42" width="44.607" height="46.499" transform="translate(60.98 56.492) rotate(180)" fill="#e0e0e0"/>
      <rect id="Rectangle_43" data-name="Rectangle 43" width="44.607" height="46.499" transform="translate(64.004 56.492) rotate(180)" fill="#fafafa"/>
      <path id="Path_155" data-name="Path 155" d="M82.74,65.74h44.638v46.525H82.74Zm44.612.026H82.771v46.473h44.581Z" transform="translate(-63.358 -55.763)" fill="#e0e0e0"/>
      <rect id="Rectangle_44" data-name="Rectangle 44" width="32.615" height="33.999" transform="translate(58.008 50.239) rotate(180)" fill="#fff"/>
      <path id="Path_156" data-name="Path 156" d="M156.44,143a5.158,5.158,0,0,0,.807.938c.524.55,1.253,1.289,2.1,2.1s1.572,1.525,2.133,2.039a5.323,5.323,0,0,0,.943.786,5.337,5.337,0,0,0-.8-.933c-.524-.55-1.258-1.295-2.1-2.1s-1.572-1.53-2.133-2.044A5.148,5.148,0,0,0,156.44,143Z" transform="translate(-98.432 -92.53)" fill="#e0e0e0"/>
      <path id="Path_157" data-name="Path 157" d="M88.894,142.83a5.042,5.042,0,0,0-.933.807c-.55.524-1.295,1.253-2.1,2.07s-1.53,1.572-2.044,2.133a4.863,4.863,0,0,0-.781.943,5.44,5.44,0,0,0,.928-.8c.524-.524,1.3-1.253,2.1-2.1s1.536-1.572,2.044-2.133a4.879,4.879,0,0,0,.786-.922Z" transform="translate(-63.501 -92.449)" fill="#e0e0e0"/>
      <path id="Path_158" data-name="Path 158" d="M88.96,72.544a5.571,5.571,0,0,0-.8-.933c-.524-.524-1.253-1.295-2.1-2.1s-1.572-1.53-2.128-2.039a5.478,5.478,0,0,0-.943-.786,5.073,5.073,0,0,0,.8.933c.524.55,1.258,1.295,2.1,2.1s1.572,1.53,2.133,2.039A4.88,4.88,0,0,0,88.96,72.544Z" transform="translate(-63.477 -56.215)" fill="#e0e0e0"/>
      <path id="Path_159" data-name="Path 159" d="M156.61,72.58a5.241,5.241,0,0,0,.938-.8c.524-.524,1.289-1.253,2.1-2.1s1.525-1.572,2.039-2.128a5.556,5.556,0,0,0,.786-.943,4.805,4.805,0,0,0-.938.833c-.55.524-1.295,1.253-2.1,2.1s-1.53,1.572-2.044,2.133A5.148,5.148,0,0,0,156.61,72.58Z" transform="translate(-98.513 -56.177)" fill="#e0e0e0"/>
      <path id="Path_160" data-name="Path 160" d="M94.209,111.494a1.047,1.047,0,0,0,0-.168V109.02c0-1.614,0-3.957.031-6.929,0-5.954.037-14.439.063-24.6l-.126.126H126.7l-.142-.147v34l.126-.126-23.548.063-6.619.037h-.037l6.588.037,23.627.063h.126V77.28H94.02v.126c0,10.189.047,18.7.063,24.675,0,2.961,0,5.3.037,6.9v2.269A.533.533,0,0,0,94.209,111.494Z" transform="translate(-68.727 -61.255)" fill="#e0e0e0"/>
      <rect id="Rectangle_45" data-name="Rectangle 45" width="10.88" height="10.88" transform="translate(47.144 38.682) rotate(180)" fill="#ebebeb"/>
      <rect id="Rectangle_46" data-name="Rectangle 46" width="53.69" height="101.494" transform="translate(57.542 218.483) rotate(180)" fill="#e0e0e0"/>
      <rect id="Rectangle_47" data-name="Rectangle 47" width="53.69" height="101.494" transform="translate(73.469 218.483) rotate(180)" fill="#f5f5f5"/>
      <path id="Path_161" data-name="Path 161" d="M91.05,279.08h46.1v16.09H91.05Zm45.519.566H91.616V294.6h44.953Z" transform="translate(-67.313 -157.29)" fill="#e0e0e0"/>
      <path id="Path_162" data-name="Path 162" d="M2.594,0H14.9a2.594,2.594,0,0,1,2.594,2.594v.613H0V2.594A2.594,2.594,0,0,1,2.594,0Z" transform="translate(55.21 125.281) rotate(180)" fill="#ebebeb"/>
      <path id="Path_163" data-name="Path 163" d="M91.05,318.07h46.1v16.09H91.05Zm45.519.571H91.616v14.953h44.953Z" transform="translate(-67.313 -175.845)" fill="#e0e0e0"/>
      <path id="Path_164" data-name="Path 164" d="M2.594,0H14.9a2.594,2.594,0,0,1,2.594,2.594v.613H0V2.594A2.594,2.594,0,0,1,2.594,0Z" transform="translate(55.21 145.716) rotate(180)" fill="#ebebeb"/>
      <path id="Path_165" data-name="Path 165" d="M91.05,357.07h46.1v16.085H91.05Zm45.519.566H91.616v14.953h44.953Z" transform="translate(-67.313 -194.405)" fill="#e0e0e0"/>
      <path id="Path_166" data-name="Path 166" d="M2.594,0H14.9a2.594,2.594,0,0,1,2.594,2.594v.613H0V2.594A2.594,2.594,0,0,1,2.594,0Z" transform="translate(55.21 166.151) rotate(180)" fill="#ebebeb"/>
      <path id="Path_167" data-name="Path 167" d="M91.05,396.06h46.1v16.09H91.05Zm45.519.566H91.616v14.958h44.953Z" transform="translate(-67.313 -212.96)" fill="#e0e0e0"/>
      <path id="Path_168" data-name="Path 168" d="M2.594,0H14.9a2.594,2.594,0,0,1,2.594,2.594v.613H0V2.594A2.594,2.594,0,0,1,2.594,0Z" transform="translate(55.21 186.591) rotate(180)" fill="#ebebeb"/>
      <rect id="Rectangle_48" data-name="Rectangle 48" width="58.318" height="5.058" transform="translate(75.854 118.247) rotate(180)" fill="#ebebeb"/>
      <rect id="Rectangle_49" data-name="Rectangle 49" width="17.537" height="5.058" transform="translate(17.537 118.247) rotate(180)" fill="#e0e0e0"/>
      <rect id="Rectangle_50" data-name="Rectangle 50" width="2.82" height="5.183" transform="translate(73.475 223.666) rotate(180)" fill="#e0e0e0"/>
      <rect id="Rectangle_51" data-name="Rectangle 51" width="2.82" height="5.183" transform="translate(56.043 223.666) rotate(180)" fill="#e0e0e0"/>
      <rect id="Rectangle_52" data-name="Rectangle 52" width="2.82" height="5.183" transform="translate(24.198 223.666) rotate(180)" fill="#e0e0e0"/>
      <rect id="Rectangle_53" data-name="Rectangle 53" width="2.82" height="5.183" transform="translate(8.276 223.666) rotate(180)" fill="#e0e0e0"/>
      <rect id="Rectangle_54" data-name="Rectangle 54" width="17.023" height="25.252" transform="matrix(0.191, -0.982, 0.982, 0.191, 131.453, 16.711)" fill="#f5f5f5"/>
      <path id="Path_169" data-name="Path 169" d="M327.64,51.918a1.723,1.723,0,0,1-.272.178l-.807.472-3,1.693L313.6,59.795l-.079.047-.063-.073-.147-.173-7.448-8.805-2.222-2.7q-.377-.456-.6-.739a1.733,1.733,0,0,1-.2-.267,2.064,2.064,0,0,1,.231.241l.634.708,2.29,2.621c1.934,2.259,4.581,5.346,7.5,8.763a2.133,2.133,0,0,1,.147.173l-.142-.026,9.958-5.477,3.045-1.593.828-.435A2.238,2.238,0,0,1,327.64,51.918Z" transform="translate(-168.107 -46.883)" fill="#e0e0e0"/>
      <path id="Path_170" data-name="Path 170" d="M296.66,71.337c-.042-.052,2.269-1.981,5.157-4.308s5.241-4.193,5.3-4.13-2.269,1.976-5.157,4.308S296.7,71.389,296.66,71.337Z" transform="translate(-165.161 -54.41)" fill="#e0e0e0"/>
      <path id="Path_171" data-name="Path 171" d="M332.408,65.57c.058-.031,1.457,2.621,3.145,5.875s2.982,5.954,2.925,5.98-1.457-2.621-3.145-5.875S332.351,65.6,332.408,65.57Z" transform="translate(-182.173 -55.682)" fill="#e0e0e0"/>
      <rect id="Rectangle_55" data-name="Rectangle 55" width="19.811" height="13.354" transform="matrix(0.894, -0.449, 0.449, 0.894, 195.077, 31.102)" fill="#f5f5f5"/>
      <path id="Path_172" data-name="Path 172" d="M435.924,89.31a1.283,1.283,0,0,1-.084.241c-.068.173-.162.4-.278.681l-1.048,2.484-3.522,8.2-.031.068h-.073l-.173-.037-8.842-1.9-2.678-.6-.723-.168a1.485,1.485,0,0,1-.252-.073,1.346,1.346,0,0,1,.257.037l.734.136,2.689.524,8.852,1.845.178.037-.1.052c1.394-3.192,2.652-6.074,3.574-8.176l1.09-2.474.309-.666a1.449,1.449,0,0,1,.126-.22Z" transform="translate(-223.011 -66.98)" fill="#e0e0e0"/>
      <path id="Path_173" data-name="Path 173" d="M429.637,119.692c-.047,0,.461-2.317,1.137-5.147s1.268-5.115,1.316-5.1-.461,2.317-1.137,5.147S429.684,119.723,429.637,119.692Z" transform="translate(-228.443 -76.559)" fill="#e0e0e0"/>
      <path id="Path_174" data-name="Path 174" d="M445.4,103.558c0-.047,2.154.917,4.759,2.149s4.717,2.269,4.686,2.311-2.154-.917-4.759-2.149S445.379,103.6,445.4,103.558Z" transform="translate(-235.945 -73.76)" fill="#e0e0e0"/>
      <rect id="Rectangle_56" data-name="Rectangle 56" width="10.194" height="15.126" transform="translate(126.156 83.493) rotate(-78.44)" fill="#f5f5f5"/>
      <path id="Path_175" data-name="Path 175" d="M305.216,190.235l-.162.1-.487.273-1.792.991-5.985,3.255-.052.026-.037-.042-.084-.1c-1.719-2.1-3.276-3.947-4.408-5.32l-1.326-1.619-.356-.445a.75.75,0,0,1-.115-.162,1.047,1.047,0,0,1,.136.147l.377.43,1.357,1.572c1.143,1.368,2.71,3.234,4.439,5.294l.089.1h-.089l6.006-3.218,1.824-.959.5-.257A.858.858,0,0,1,305.216,190.235Z" transform="translate(-162.187 -113.56)" fill="#e0e0e0"/>
      <path id="Path_176" data-name="Path 176" d="M286.49,201.719c0-.031,1.373-1.169,3.113-2.547s3.176-2.474,3.2-2.442-1.373,1.169-3.113,2.547S286.516,201.75,286.49,201.719Z" transform="translate(-160.321 -118.099)" fill="#e0e0e0"/>
      <path id="Path_177" data-name="Path 177" d="M308,198.41c.031,0,.854,1.572,1.834,3.538s1.751,3.585,1.719,3.6-.86-1.572-1.84-3.538S307.957,198.431,308,198.41Z" transform="translate(-170.556 -118.9)" fill="#e0e0e0"/>
      <path id="Path_178" data-name="Path 178" d="M357.95,163.88l23.721-2.72,2.4,16.064-24.607,2.416Z" transform="translate(-194.329 -101.173)" fill="#ebebeb"/>
      <path id="Path_179" data-name="Path 179" d="M358,156.659l10.262-10.3a1.3,1.3,0,0,1,1.63-.168l11.829,7.746" transform="translate(-194.352 -93.946)" fill="#e0e0e0"/>
      <path id="Path_180" data-name="Path 180" d="M360.84,187.259c-.031,0,1.646-2.3,3.747-5.089s3.831-5.026,3.863-5-1.646,2.3-3.747,5.089S360.871,187.285,360.84,187.259Z" transform="translate(-195.704 -108.791)" fill="#e0e0e0"/>
      <path id="Path_181" data-name="Path 181" d="M399.485,184.291c-.031.026-2.1-1.808-4.623-4.1S390.314,176,390.34,176s2.1,1.808,4.623,4.1S399.512,184.26,399.485,184.291Z" transform="translate(-209.743 -108.235)" fill="#e0e0e0"/>
      <path id="Path_182" data-name="Path 182" d="M359.659,158.81l-.839-7.411,20.765-2.479,1.069,7.778-9.481,9.313Z" transform="translate(-194.743 -95.348)" fill="#fafafa"/>
      <path id="Path_183" data-name="Path 183" d="M359.591,158.686l.225.121.624.372,2.343,1.431,8.386,5.183h-.142l9.465-9.334-.037.115c-.2-1.483-.424-3.04-.639-4.623q-.22-1.572-.435-3.145l.152.115-20.77,2.432.079-.1c.241,2.317.435,4.161.571,5.445q.089.933.141,1.462a1.351,1.351,0,0,0,.031.383.425.425,0,0,1,0,.131.7.7,0,0,1,0-.121l-.052-.367q-.068-.524-.189-1.447c-.152-1.289-.377-3.145-.655-5.466v-.084h.084l20.755-2.531h.136v.131q.21,1.572.435,3.145c.22,1.572.435,3.145.639,4.623v.068l-.052.047-9.5,9.3-.063.058-.073-.047-8.386-5.293-2.3-1.473-.6-.388a1.574,1.574,0,0,1-.178-.147Z" transform="translate(-194.681 -95.224)" fill="#e0e0e0"/>
      <path id="Path_184" data-name="Path 184" d="M380.048,156.709c0,.073-3.145.493-7.081.938s-7.1.749-7.107.671,3.145-.493,7.081-.938S380.042,156.63,380.048,156.709Z" transform="translate(-198.093 -99.048)" fill="#e0e0e0"/>
      <path id="Path_185" data-name="Path 185" d="M380.478,160.7c0,.079-3.145.5-7.081.943s-7.1.744-7.107.671,3.145-.5,7.081-.943S380.472,160.627,380.478,160.7Z" transform="translate(-198.298 -100.948)" fill="#e0e0e0"/>
      <path id="Path_186" data-name="Path 186" d="M380.973,165.311c0,.073-3.145.524-7.081.943s-7.1.744-7.112.671,3.145-.524,7.081-.943S380.962,165.237,380.973,165.311Z" transform="translate(-198.531 -103.143)" fill="#e0e0e0"/>
      <path id="Path_187" data-name="Path 187" d="M382.034,169.91c0,.079-3.014.482-6.75.907s-6.777.708-6.813.634,3.014-.482,6.756-.907S382.028,169.836,382.034,169.91Z" transform="translate(-199.335 -105.331)" fill="#e0e0e0"/>
      <path id="Path_188" data-name="Path 188" d="M382.277,174.494a5.241,5.241,0,0,1-1.185.236c-.739.11-1.761.241-2.888.383s-2.159.246-2.9.309a5.028,5.028,0,0,1-1.211.037,5.56,5.56,0,0,1,1.19-.231c.739-.11,1.761-.246,2.888-.388s2.159-.241,2.9-.3A5.241,5.241,0,0,1,382.277,174.494Z" transform="translate(-202.01 -107.51)" fill="#e0e0e0"/>
      <path id="Path_189" data-name="Path 189" d="M382.249,178.937a4.574,4.574,0,0,1-1.5.3,4.424,4.424,0,0,1-1.53,0,4.193,4.193,0,0,1,1.5-.3A4.282,4.282,0,0,1,382.249,178.937Z" transform="translate(-204.451 -109.6)" fill="#e0e0e0"/>
    </g>
    <g id="freepik--Plant--inject-46" transform="translate(173.85 171.067)">
      <path id="Path_190" data-name="Path 190" d="M330.746,381.908a16.8,16.8,0,0,0-5.608-15.891s-1.3-.477-1.19.98c.068.87-.77,2.1-1.462,1.572-1.211-.933-.828-2.825-1.347-4.261-.613-1.677-2.4-2.573-4.036-3.291a41.582,41.582,0,0,0-9.329-3.192,15.76,15.76,0,0,0-9.665,1.022q1.08,2.165,2.149,4.334a1.52,1.52,0,0,0,1.923.964l3.931-.288c.571-.042,1.3,0,1.473.571s-.556,1.08-1.163,1.295L302.3,367.2a13.2,13.2,0,0,0,5.451,4.544,39.481,39.481,0,0,0,6.813,2.322,4.01,4.01,0,0,0,2.254.173c1.2-.388,2.028-1.887,3.281-1.7a5.241,5.241,0,0,1-1.934,3.543c4.858,1.908,8.244,4.24,12.579,5.833" transform="translate(-298.11 -318.978)" fill="#ff725e"/>
      <path id="Path_191" data-name="Path 191" d="M346.449,408.395a1.286,1.286,0,0,1-.037-.126,1.971,1.971,0,0,0-.084-.372c-.068-.346-.168-.823-.3-1.436-.252-1.263-.613-3.061-1.048-5.278q-.33-1.674-.723-3.669c-.126-.655-.262-1.336-.4-2.034l-.21-1.048q-.079-.524-.157-1.1a34.986,34.986,0,0,0-2.427-9.4,23.444,23.444,0,0,0-6.022-7.558,50.629,50.629,0,0,0-6.4-4.717c-1.913-1.227-3.506-2.144-4.6-2.788l-1.263-.744-.325-.2-.1-.073a.253.253,0,0,1,.121.052l.335.178,1.284.7c1.106.624,2.715,1.525,4.644,2.731a50.089,50.089,0,0,1,6.457,4.717,32.558,32.558,0,0,1,3.328,3.36,19.252,19.252,0,0,1,2.757,4.261,34.628,34.628,0,0,1,2.432,9.471l.152,1.1.2,1.048c.131.7.262,1.378.388,2.034q.37,1.965.692,3.669l.985,5.288c.11.613.2,1.1.257,1.441l.063.377A.492.492,0,0,1,346.449,408.395Z" transform="translate(-309.646 -323.898)" fill="#263238"/>
      <path id="Path_192" data-name="Path 192" d="M363.7,314.048c-1.048,1.572-4.02.8-4.193-1.048s2.579-3.192,3.92-1.866a44.331,44.331,0,0,0-1.656-16.331,8.542,8.542,0,0,1-1.536,2.982,2.913,2.913,0,0,1-3.035.949c-1.426-.524-1.845-2.49-1.253-3.894a8.565,8.565,0,0,1,3.1-3.276,15.309,15.309,0,0,0-9.5-7.573,29.038,29.038,0,0,0-3.894,8.092c-.713,2.919-.388,6.258,1.572,8.548a21.866,21.866,0,0,1,2.568,2.841c.645,1.106.6,2.793-.524,3.391-1.331.7-2.835-.618-3.59-1.923s-1.525-2.9-3.014-3.145a28.857,28.857,0,0,0,13.339,26.488l-.152-.142a41.513,41.513,0,0,0,7.846-14.093Zm-6.813-11.488a7.206,7.206,0,0,1,2.767-1.572,1.048,1.048,0,0,1,1.185.315,1.53,1.53,0,0,1,.3,1.237,2.971,2.971,0,0,1-.524,1.2,3.962,3.962,0,0,1-1.572,1.4,2.479,2.479,0,0,1-2.1,0,1.457,1.457,0,0,1-.833-1.174,1.965,1.965,0,0,1,.755-1.41Z" transform="translate(-319.279 -283.99)" fill="#ff725e"/>
      <path id="Path_193" data-name="Path 193" d="M367.8,387.9a.685.685,0,0,1,0-.162v-.482c0-.435-.042-1.048-.068-1.845-.068-1.614-.157-3.926-.272-6.777-.252-5.723-.655-13.627-1.3-22.348s-1.389-16.6-2.013-22.29c-.3-2.851-.582-5.152-.776-6.74-.089-.786-.162-1.4-.21-1.834a3.133,3.133,0,0,0-.052-.477.522.522,0,0,1,0-.162l.031.157c0,.12.042.278.068.477.063.43.147,1.048.257,1.824.22,1.572.524,3.889.849,6.735.671,5.692,1.452,13.574,2.1,22.3s1.017,16.63,1.232,22.358c.1,2.862.162,5.178.194,6.782v2.322A1.05,1.05,0,0,1,367.8,387.9Z" transform="translate(-329.042 -303.402)" fill="#263238"/>
      <path id="Path_194" data-name="Path 194" d="M340.05,426.82l4.182,17.741h21.929l4.633-17.741Z" transform="translate(-318.069 -351.962)" fill="#455a64"/>
      <path id="Path_195" data-name="Path 195" d="M353.21,453.56c0,.335,1.693,10.508,1.693,10.508h13.339l1.467-10.508Z" transform="translate(-324.332 -364.687)" fill="#455a64"/>
      <path id="Path_196" data-name="Path 196" d="M369.3,460.411c0,.063-4.785.115-10.686.115s-10.687-.052-10.687-.115,4.785-.121,10.687-.121S369.3,460.342,369.3,460.411Z" transform="translate(-321.819 -367.89)" fill="#263238"/>
      <path id="Path_197" data-name="Path 197" d="M370.217,446.765c0,.063-5.639.115-12.579.115s-12.579-.052-12.579-.115,5.645-.115,12.579-.115S370.217,446.7,370.217,446.765Z" transform="translate(-320.453 -361.399)" fill="#263238"/>
      <path id="Path_198" data-name="Path 198" d="M369.636,451.475c0,.068-5.314.121-11.861.121s-11.866-.052-11.866-.121,5.314-.115,11.866-.115S369.636,451.412,369.636,451.475Z" transform="translate(-320.858 -363.64)" fill="#263238"/>
      <path id="Path_199" data-name="Path 199" d="M370.232,456.2c0,.063-5.121.115-11.436.115s-11.436-.052-11.436-.115,5.121-.115,11.436-.115S370.232,456.132,370.232,456.2Z" transform="translate(-321.548 -365.886)" fill="#263238"/>
      <path id="Path_200" data-name="Path 200" d="M370.366,442.185c0,.063-5.9.115-13.171.115s-13.166-.052-13.166-.115,5.891-.115,13.166-.115S370.366,442.122,370.366,442.185Z" transform="translate(-319.963 -359.219)" fill="#263238"/>
      <path id="Path_201" data-name="Path 201" d="M370.719,438.411c0,.063-6.006.115-13.412.115s-13.417-.052-13.417-.115,6.006-.121,13.417-.121S370.719,438.342,370.719,438.411Z" transform="translate(-319.896 -357.42)" fill="#263238"/>
    </g>
    <g id="freepik--Floor--inject-46" transform="translate(37 270.328)">
      <path id="Path_202" data-name="Path 202" d="M260.27,473.516c0,.079-49.989.136-111.635.136S37,473.595,37,473.516s49.979-.136,111.635-.136S260.27,473.443,260.27,473.516Z" transform="translate(-37 -473.38)" fill="#263238"/>
    </g>
    <g id="freepik--Character--inject-46" transform="translate(65.302 74.959)">
      <path id="Path_203" data-name="Path 203" d="M232.554,429.953l-1.42,18.836-8.192-.168-1.122-19.6Z" transform="translate(-153.256 -256.9)" fill="#ffbe9d"/>
      <path id="Path_204" data-name="Path 204" d="M231.857,461.738v.524s9.2,3.8,9.287,5.55l-18.344-.262.341-6.1a10.482,10.482,0,0,0,8.716.288Z" transform="translate(-153.723 -272.333)" fill="#ff725e"/>
      <path id="Path_205" data-name="Path 205" d="M245.511,467.343c-.068,0-.173-.383.037-.812s.582-.592.613-.524-.2.293-.367.65S245.589,467.338,245.511,467.343Z" transform="translate(-164.489 -274.494)" fill="#263238"/>
      <path id="Path_206" data-name="Path 206" d="M226.445,465.247a.76.76,0,0,0-.524.849.729.729,0,0,0,.839.524.8.8,0,0,0,.556-.9.744.744,0,0,0-.928-.461" transform="translate(-155.203 -274.128)" fill="#fff"/>
      <path id="Path_207" data-name="Path 207" d="M238.663,463.075c0,.089-.451.126-.9.409s-.687.65-.765.613.058-.55.6-.88S238.684,463,238.663,463.075Z" transform="translate(-160.471 -273.067)" fill="#263238"/>
      <path id="Path_208" data-name="Path 208" d="M242.721,464.689c0,.089-.367.236-.676.608s-.4.776-.493.77-.142-.524.252-.97S242.721,464.605,242.721,464.689Z" transform="translate(-162.617 -273.858)" fill="#263238"/>
      <path id="Path_209" data-name="Path 209" d="M222.8,471.9l.079-1.389,17.694.781a1.535,1.535,0,0,1,.561.886Z" transform="translate(-153.723 -276.645)" fill="#263238"/>
      <path id="Path_210" data-name="Path 210" d="M324.23,110.108s3.433-3.391,4.345-3.962,2.034-1.855,2.741-2.149a20.879,20.879,0,0,0,2.343-1.415l1.394-1.724s1.048-.11.818,1.048l2.594-.524s.7.6-.409,1.316a2.62,2.62,0,0,1-1.887.524l-1.09,1.216.189.639,6.289.823a1.174,1.174,0,0,1-1.158,1.048c-1.048,0-4.843-.162-4.843-.162l5.849,2.206s.309.9-1.52.634a42.211,42.211,0,0,1-4.748-1.158l-.524.461,1.6.933,1.494,1.929a1.62,1.62,0,0,1-1.892-.425l-.964-.943h-1.4s-3.805,2.657-5.079,2.039l-1.08,1.085Z" transform="translate(-201.992 -100.729)" fill="#ffbe9d"/>
      <path id="Path_211" data-name="Path 211" d="M344.1,109.72a1.42,1.42,0,0,1,.215.655,3.533,3.533,0,0,1-.126,1.672,2.621,2.621,0,0,1-1.006,1.347c-.351.252-.608.33-.624.3s.2-.173.524-.451a2.862,2.862,0,0,0,.865-1.279A7.63,7.63,0,0,0,344.1,109.72Z" transform="translate(-210.715 -104.948)" fill="#eb996e"/>
      <path id="Path_212" data-name="Path 212" d="M335.28,109.873a3.381,3.381,0,0,0,1.572-.613,4.288,4.288,0,0,0,1.205-1.441,12.059,12.059,0,0,0,.859-2.28v-.031l.031-.031a6.5,6.5,0,0,0,1.73-2.374,5.288,5.288,0,0,0,.367-1.447.807.807,0,0,0-.178-.587.75.75,0,0,0-.524-.194l.094-.058a11.83,11.83,0,0,1-3.082,3.2,8.386,8.386,0,0,1-1.1.655,1.745,1.745,0,0,1-.43.173c0-.037.571-.3,1.436-.959a12.5,12.5,0,0,0,2.961-3.213l.037-.058h.063a.975.975,0,0,1,.749.267,1.048,1.048,0,0,1,.257.781,5.315,5.315,0,0,1-.383,1.541,6.656,6.656,0,0,1-1.824,2.474l.047-.063a11.818,11.818,0,0,1-.917,2.306,4.192,4.192,0,0,1-1.305,1.468,2.725,2.725,0,0,1-1.19.477,1.1,1.1,0,0,1-.477.005Z" transform="translate(-207.251 -100.614)" fill="#eb996e"/>
      <path id="Path_213" data-name="Path 213" d="M235.54,142.642l25.026-10.6,21.6-15.629,4.371,4.644s-15.136,15.765-19.078,18.983-25.236,16.771-25.236,16.771Z" transform="translate(-159.785 -108.131)" fill="#ff725e"/>
      <path id="Path_214" data-name="Path 214" d="M260.964,172.5a3.229,3.229,0,0,0-1.918.147c-.2.1-.4.32-.293.524.068.121.231.152.367.178,2.484.383,4.717,1.127,7.2,1.515l.419-.178A18.542,18.542,0,0,0,260.964,172.5Z" transform="translate(-170.817 -134.783)" fill="#fafafa"/>
      <path id="Path_215" data-name="Path 215" d="M271.366,166.42a19.759,19.759,0,0,0,1.572,3.553l.246-.141a19.185,19.185,0,0,0-.22-3.758,5.975,5.975,0,0,0-1.468-3.244,5.765,5.765,0,0,0-.131,3.59Z" transform="translate(-176.727 -130.222)" fill="#fafafa"/>
      <path id="Path_216" data-name="Path 216" d="M277.932,165.383c-.524,1.462-1.022,2.867-1.572,4.329l1.048-1.074a15,15,0,0,0,2.306-4.057,1.31,1.31,0,0,0,.089-.524.524.524,0,0,0-.293-.435.629.629,0,0,0-.571.136A3.328,3.328,0,0,0,277.932,165.383Z" transform="translate(-179.211 -130.59)" fill="#fafafa"/>
      <path id="Path_217" data-name="Path 217" d="M308.051,132.747a2.84,2.84,0,0,0,1.625-.524c.152-.126.283-.367.147-.524a.424.424,0,0,0-.356-.079c-2.227.2-4.313.031-6.541.231l-.325.241A16.326,16.326,0,0,0,308.051,132.747Z" transform="translate(-191.699 -115.365)" fill="#fafafa"/>
      <path id="Path_218" data-name="Path 218" d="M304.08,135.641a17.4,17.4,0,0,0-2.1-2.741l-.183.178a17.122,17.122,0,0,0,1,3.2,5.278,5.278,0,0,0,1.965,2.49A5.121,5.121,0,0,0,304.08,135.641Z" transform="translate(-191.318 -115.979)" fill="#fafafa"/>
      <path id="Path_219" data-name="Path 219" d="M298.753,138.417c.142-1.373.273-2.694.414-4.067l-.655,1.143a13.464,13.464,0,0,0-1.122,4,1.175,1.175,0,0,0,.037.487.456.456,0,0,0,.351.314.555.555,0,0,0,.461-.241A2.951,2.951,0,0,0,298.753,138.417Z" transform="translate(-189.214 -116.669)" fill="#fafafa"/>
      <path id="Path_220" data-name="Path 220" d="M120.092,366.44l-18.957,6.221L97.99,364.6l18.679-9.02Z" transform="translate(-94.326 -221.95)" fill="#ffbe9d"/>
      <path id="Path_221" data-name="Path 221" d="M100.334,378.907l-.524.215s0,10.519-1.667,11.3L91,372.418l6.09-2.138A11.1,11.1,0,0,0,100.334,378.907Z" transform="translate(-91 -228.946)" fill="#ff725e"/>
      <path id="Path_222" data-name="Path 222" d="M99.072,374.945a.791.791,0,0,0-1.048-.178.765.765,0,0,0-.183,1.048.839.839,0,0,0,1.106.178.8.8,0,0,0,.073-1.1" transform="translate(-94.193 -231.022)" fill="#fff"/>
      <path id="Path_223" data-name="Path 223" d="M91,373.884l1.467-.524,6.289,17.448s0,.943-.629,1.074Z" transform="translate(-91 -230.412)" fill="#263238"/>
      <path id="Path_224" data-name="Path 224" d="M106.222,386.143c-.089.031-.3-.393-.76-.713s-.912-.4-.912-.5.561-.168,1.106.231S106.311,386.127,106.222,386.143Z" transform="translate(-97.448 -235.884)" fill="#263238"/>
      <path id="Path_225" data-name="Path 225" d="M106.027,390.776c-.079.052-.377-.267-.87-.419s-.917-.084-.949-.173.445-.341,1.048-.142S106.111,390.739,106.027,390.776Z" transform="translate(-97.285 -238.315)" fill="#263238"/>
      <path id="Path_226" data-name="Path 226" d="M104.176,394.963c-.052-.073.341-.372.912-.335s.928.367.865.435-.414-.084-.886-.11S104.218,395.046,104.176,394.963Z" transform="translate(-97.268 -240.531)" fill="#263238"/>
      <path id="Path_227" data-name="Path 227" d="M176.2,269.649s-13.9,28.3-17.631,30.477-46.7,17.469-46.7,17.469l-3.307-10.21,38.884-20.535s5.079-13.847,6.971-24.366c1.158-6.447,3.816-10.225,7.636-15.246a25.618,25.618,0,0,1,4.156-4.408l17.469,3.307Z" transform="translate(-99.357 -168.294)" fill="#263238"/>
      <path id="Path_228" data-name="Path 228" d="M240.563,247.965l-18.758-3.145L218,266.874l3.81,46.315s-2.621,16.1-2.175,26.693c.4,9.99.791,13.758.791,13.758s8.066.037,9.9.037c.77,0,7.662-50.131,7.662-50.131Z" transform="translate(-151.438 -169.241)" fill="#263238"/>
      <path id="Path_229" data-name="Path 229" d="M231.44,273.9a2.492,2.492,0,0,1-.126.325c-.1.236-.231.524-.4.922l-1.483,3.37c-1.247,2.877-2.951,6.813-4.827,11.153s-3.784,8.223-5.241,10.975c-.729,1.373-1.331,2.479-1.772,3.234l-.524.865a1.706,1.706,0,0,1-.189.293,1.571,1.571,0,0,1,.142-.32c.121-.225.273-.524.461-.891l1.688-3.27c1.4-2.772,3.255-6.651,5.157-11.006s3.622-8.26,4.927-11.111c.65-1.415,1.184-2.558,1.572-3.339l.445-.9A1.437,1.437,0,0,1,231.44,273.9Z" transform="translate(-150.905 -183.08)" fill="#455a64"/>
      <path id="Path_230" data-name="Path 230" d="M111.411,369.98c.031.068-.21.246-.524.4s-.613.231-.65.162.21-.252.524-.409S111.374,369.922,111.411,369.98Z" transform="translate(-100.153 -228.793)" fill="#455a64"/>
      <path id="Path_231" data-name="Path 231" d="M119.3,365.69c.037.068-.466.377-1.111.692a3.231,3.231,0,0,1-1.232.445c-.037-.068.466-.377,1.111-.692A3.228,3.228,0,0,1,119.3,365.69Z" transform="translate(-103.352 -226.762)" fill="#455a64"/>
      <path id="Path_232" data-name="Path 232" d="M128.251,361.33c.037.068-.466.377-1.111.7a3.3,3.3,0,0,1-1.232.451c-.037-.068.466-.383,1.111-.7A3.3,3.3,0,0,1,128.251,361.33Z" transform="translate(-107.612 -224.687)" fill="#455a64"/>
      <path id="Path_233" data-name="Path 233" d="M137.178,357a6.421,6.421,0,0,1-2.338,1.153A6.11,6.11,0,0,1,137.178,357Z" transform="translate(-111.863 -222.626)" fill="#455a64"/>
      <path id="Path_234" data-name="Path 234" d="M146.081,352.52c.037.068-.461.383-1.106.708a3.218,3.218,0,0,1-1.226.456c-.037-.068.461-.383,1.106-.7a3.286,3.286,0,0,1,1.226-.461Z" transform="translate(-116.102 -220.494)" fill="#455a64"/>
      <path id="Path_235" data-name="Path 235" d="M154.977,348.05c.037.068-.461.383-1.1.708a3.213,3.213,0,0,1-1.226.466,3.3,3.3,0,0,1,1.1-.707A3.243,3.243,0,0,1,154.977,348.05Z" transform="translate(-120.339 -218.367)" fill="#455a64"/>
      <path id="Path_236" data-name="Path 236" d="M163.892,343.5a6.289,6.289,0,0,1-2.322,1.2,3.229,3.229,0,0,1,1.1-.723,3.343,3.343,0,0,1,1.226-.477Z" transform="translate(-124.584 -216.202)" fill="#455a64"/>
      <path id="Path_237" data-name="Path 237" d="M172.656,338.85c.037.068-.451.393-1.085.734a3.171,3.171,0,0,1-1.211.493,3.313,3.313,0,0,1,1.085-.734A3.172,3.172,0,0,1,172.656,338.85Z" transform="translate(-128.767 -213.989)" fill="#455a64"/>
      <path id="Path_238" data-name="Path 238" d="M181.368,334c.037.063-.435.409-1.048.77a3.144,3.144,0,0,1-1.2.524,3.344,3.344,0,0,1,1.048-.77,3.094,3.094,0,0,1,1.2-.524Z" transform="translate(-132.936 -211.681)" fill="#455a64"/>
      <path id="Path_239" data-name="Path 239" d="M188.2,326.56a3.669,3.669,0,0,1-.089,1.3,4.718,4.718,0,0,0-.052.487.814.814,0,0,0,0,.1.262.262,0,0,1-.042.162.833.833,0,0,1-.141.173c-.189.168-.325.22-.351.194s.073-.142.2-.325a.559.559,0,0,0,.084-.141.105.105,0,0,0,0-.042.372.372,0,0,1,0-.121,2.95,2.95,0,0,1,0-.524A2.893,2.893,0,0,1,188.2,326.56Z" transform="translate(-136.934 -208.14)" fill="#455a64"/>
      <path id="Path_240" data-name="Path 240" d="M190.549,316.88a3.26,3.26,0,0,1-.183,1.3,3.213,3.213,0,0,1-.451,1.232,3.275,3.275,0,0,1,.183-1.3A3.313,3.313,0,0,1,190.549,316.88Z" transform="translate(-138.07 -203.533)" fill="#455a64"/>
      <path id="Path_241" data-name="Path 241" d="M193.062,307.27a6.421,6.421,0,0,1-.676,2.516,3.144,3.144,0,0,1,.2-1.295A3.24,3.24,0,0,1,193.062,307.27Z" transform="translate(-139.247 -198.96)" fill="#455a64"/>
      <path id="Path_242" data-name="Path 242" d="M195.706,297.68a6.174,6.174,0,0,1-.708,2.51,3.207,3.207,0,0,1,.22-1.289A3.26,3.26,0,0,1,195.706,297.68Z" transform="translate(-140.491 -194.396)" fill="#455a64"/>
      <path id="Path_243" data-name="Path 243" d="M198.449,288.12a3.177,3.177,0,0,1-.236,1.289,3.265,3.265,0,0,1-.493,1.216A6.148,6.148,0,0,1,198.449,288.12Z" transform="translate(-141.787 -189.847)" fill="#455a64"/>
      <path id="Path_244" data-name="Path 244" d="M201.305,278.59a6.326,6.326,0,0,1-.765,2.495,3.239,3.239,0,0,1,.252-1.289A3.193,3.193,0,0,1,201.305,278.59Z" transform="translate(-143.129 -185.311)" fill="#455a64"/>
      <path id="Path_245" data-name="Path 245" d="M204.459,269.22a5.054,5.054,0,0,1-.377,1.253,3.182,3.182,0,0,1-.571,1.174,3.348,3.348,0,0,1,.32-1.279,2.374,2.374,0,0,1,.629-1.148Z" transform="translate(-144.543 -180.852)" fill="#455a64"/>
      <path id="Path_246" data-name="Path 246" d="M209.348,260.837a3.2,3.2,0,0,1-.618,1.158c-.4.592-.786,1.048-.849,1a3.207,3.207,0,0,1,.624-1.158C208.907,261.246,209.29,260.8,209.348,260.837Z" transform="translate(-146.622 -176.862)" fill="#455a64"/>
      <path id="Path_247" data-name="Path 247" d="M215.131,252.8c.063.047-.236.524-.666,1.127s-.823,1.012-.886.97a3.26,3.26,0,0,1,.666-1.132C214.675,253.185,215.074,252.75,215.131,252.8Z" transform="translate(-149.335 -173.035)" fill="#455a64"/>
      <path id="Path_248" data-name="Path 248" d="M220.329,246.844c.058.047-.073.314-.294.6s-.445.477-.524.435.073-.314.294-.6S220.281,246.8,220.329,246.844Z" transform="translate(-152.147 -170.2)" fill="#455a64"/>
      <path id="Path_249" data-name="Path 249" d="M225.145,319.645c-.073,0-.157-.278-.183-.639s0-.66.084-.666.157.283.183.645S225.223,319.64,225.145,319.645Z" transform="translate(-154.746 -204.228)" fill="#455a64"/>
      <path id="Path_250" data-name="Path 250" d="M225.838,328.7a3.569,3.569,0,0,1-.236-1.342,3.348,3.348,0,0,1,.037-1.363,3.568,3.568,0,0,1,.236,1.342A3.458,3.458,0,0,1,225.838,328.7Z" transform="translate(-155.031 -207.874)" fill="#455a64"/>
      <path id="Path_251" data-name="Path 251" d="M226.546,339.04a3.432,3.432,0,0,1-.225-1.347,3.512,3.512,0,0,1,.052-1.363,3.549,3.549,0,0,1,.22,1.347A3.59,3.59,0,0,1,226.546,339.04Z" transform="translate(-155.378 -212.79)" fill="#455a64"/>
      <path id="Path_252" data-name="Path 252" d="M227.08,349.37a3.4,3.4,0,0,1-.194-1.347,3.327,3.327,0,0,1,.079-1.363A6.813,6.813,0,0,1,227.08,349.37Z" transform="translate(-155.65 -217.705)" fill="#455a64"/>
      <path id="Path_253" data-name="Path 253" d="M227.367,359.715a3.537,3.537,0,0,1-.157-1.357,3.469,3.469,0,0,1,.115-1.357A6.814,6.814,0,0,1,227.367,359.715Z" transform="translate(-155.811 -222.626)" fill="#455a64"/>
      <path id="Path_254" data-name="Path 254" d="M227.337,370.065a3.606,3.606,0,0,1-.115-1.363,3.407,3.407,0,0,1,.157-1.352,3.548,3.548,0,0,1,.115,1.357A3.422,3.422,0,0,1,227.337,370.065Z" transform="translate(-155.817 -227.552)" fill="#455a64"/>
      <path id="Path_255" data-name="Path 255" d="M226.954,380.415a3.459,3.459,0,0,1-.068-1.363,3.5,3.5,0,0,1,.2-1.352,3.5,3.5,0,0,1,.073,1.363A3.559,3.559,0,0,1,226.954,380.415Z" transform="translate(-155.649 -232.477)" fill="#455a64"/>
      <path id="Path_256" data-name="Path 256" d="M226.273,390.75a6.943,6.943,0,0,1,.2-2.71,3.36,3.36,0,0,1,.037,1.363A3.554,3.554,0,0,1,226.273,390.75Z" transform="translate(-155.351 -237.398)" fill="#455a64"/>
      <path id="Path_257" data-name="Path 257" d="M225.388,401.069a3.411,3.411,0,0,1,0-1.363,3.469,3.469,0,0,1,.252-1.336,3.532,3.532,0,0,1,0,1.363A3.469,3.469,0,0,1,225.388,401.069Z" transform="translate(-154.921 -242.314)" fill="#455a64"/>
      <path id="Path_258" data-name="Path 258" d="M224.555,411.39a3.537,3.537,0,0,1-.031-1.363,3.491,3.491,0,0,1,.236-1.347,3.632,3.632,0,0,1,.037,1.368A3.422,3.422,0,0,1,224.555,411.39Z" transform="translate(-154.518 -247.22)" fill="#455a64"/>
      <path id="Path_259" data-name="Path 259" d="M223.973,421.73a3.621,3.621,0,0,1-.073-1.363,3.548,3.548,0,0,1,.2-1.347,3.465,3.465,0,0,1,.073,1.357A3.386,3.386,0,0,1,223.973,421.73Z" transform="translate(-154.23 -252.141)" fill="#455a64"/>
      <path id="Path_260" data-name="Path 260" d="M223.855,432.08a3.37,3.37,0,0,1-.142-1.357,3.563,3.563,0,0,1,.126-1.363,3.47,3.47,0,0,1,.147,1.357A3.668,3.668,0,0,1,223.855,432.08Z" transform="translate(-154.149 -257.062)" fill="#455a64"/>
      <path id="Path_261" data-name="Path 261" d="M224.287,442.424a3.48,3.48,0,0,1-.236-1.342,3.333,3.333,0,0,1,.037-1.363,6.814,6.814,0,0,1,.2,2.7Z" transform="translate(-154.293 -261.992)" fill="#455a64"/>
      <path id="Path_262" data-name="Path 262" d="M225.291,451.344c-.073,0-.178-.267-.231-.629s-.042-.655.037-.666.178.273.231.629S225.365,451.334,225.291,451.344Z" transform="translate(-154.783 -266.908)" fill="#455a64"/>
      <path id="Path_263" data-name="Path 263" d="M224.976,251a2.138,2.138,0,0,1-.283.524,14.745,14.745,0,0,1-.933,1.336,12.232,12.232,0,0,1-4.093,3.48,8.087,8.087,0,0,1-5.3.7,5.763,5.763,0,0,1-1.536-.577,1.922,1.922,0,0,1-.493-.335,9.74,9.74,0,0,0,2.07.723,8.233,8.233,0,0,0,5.136-.755,13,13,0,0,0,4.062-3.354C224.484,251.7,224.94,251,224.976,251Z" transform="translate(-148.745 -172.182)" fill="#455a64"/>
      <path id="Path_264" data-name="Path 264" d="M250.712,251.64a6.4,6.4,0,0,1-.231,1.5,21.785,21.785,0,0,1-1.122,3.5,21.39,21.39,0,0,1-1.7,3.255,6.531,6.531,0,0,1-.907,1.221,11.358,11.358,0,0,1,.739-1.321,28.159,28.159,0,0,0,2.8-6.7,11.961,11.961,0,0,1,.419-1.452Z" transform="translate(-165.12 -172.486)" fill="#455a64"/>
      <path id="Path_265" data-name="Path 265" d="M249.313,252.458c0,.042-.252.063-.425.372a.66.66,0,0,0-.052.524.592.592,0,0,0,1.048,0,.671.671,0,0,0-.058-.524c-.173-.3-.435-.325-.425-.367s.063-.037.178,0a.728.728,0,0,1,.409.278.844.844,0,0,1,.136.734.8.8,0,1,1-1.4-.734.718.718,0,0,1,.4-.283C249.266,252.421,249.313,252.442,249.313,252.458Z" transform="translate(-165.98 -172.864)" fill="#455a64"/>
      <path id="Path_266" data-name="Path 266" d="M175.719,121.527a7.191,7.191,0,0,0-9.612,3.244c-.833,1.682-1.048,3.716-2.29,5.11-1.127,1.242-2.851,1.7-4.439,2.238s-3.276,1.368-3.9,2.93c-.524,1.331-.173,2.966-.985,4.146s-2.5,1.4-3.957,1.5a1.572,1.572,0,0,0,1.436,1.195,5.86,5.86,0,0,1-3.522.755,5.329,5.329,0,0,0,3.669,3.669,14.4,14.4,0,0,0,5.383.44c2.049-.126,4.24-.414,5.765-1.782,1.84-1.646,2.421-4.623,4.68-5.629,1.153-.524,2.521-.377,3.669-.912a5.167,5.167,0,0,0,2.531-4.3c.173-1.735-.11-3.485,0-5.241a5.363,5.363,0,0,1,2.317-4.45Z" transform="translate(-118.34 -110.214)" fill="#263238"/>
      <path id="Path_267" data-name="Path 267" d="M198.235,120.582c.152-.335-.236-.718-.608-.7a1.488,1.488,0,0,0-.928.561,6.362,6.362,0,0,0-1.735,3.527,4.382,4.382,0,0,0,1.232,3.669,1.2,1.2,0,0,0,.786.4.959.959,0,0,0,.77-.482,2.621,2.621,0,0,0,.3-.891,24.428,24.428,0,0,0,.451-6.148Z" transform="translate(-140.457 -109.782)" fill="#ff725e"/>
      <path id="Path_268" data-name="Path 268" d="M198.2,120.661c0-3.747.6-7.725,3.019-10.582a15.53,15.53,0,0,1,9.088-4.717,11.845,11.845,0,0,1,5.152.608c2.144.692,3.407,2.725,4.748,4.539,2.683,3.627,3.564,9.1,2.621,10.87l-14.932,12.3c-3.286-.933-6.95-2.369-8.386-5.461A19.5,19.5,0,0,1,198.2,120.661Z" transform="translate(-142.016 -102.844)" fill="#263238"/>
      <path id="Path_269" data-name="Path 269" d="M206.523,115.606l9.906-5.288c3.291-1.195,6.572,2.416,7.626,5.765a62.152,62.152,0,0,1,2.71,11.221c.524,5.881-3.669,7.673-3.669,7.673h0l2.023,6.646,2.322,7.39L212.4,140.1l-7.175-22.039A2.055,2.055,0,0,1,206.523,115.606Z" transform="translate(-145.328 -105.121)" fill="#ffbe9d"/>
      <path id="Path_270" data-name="Path 270" d="M239.59,128.389a.744.744,0,0,1-.524.907.708.708,0,0,1-.907-.472.749.749,0,0,1,.524-.907.713.713,0,0,1,.907.472Z" transform="translate(-161.021 -113.59)" fill="#263238"/>
      <path id="Path_271" data-name="Path 271" d="M237.645,125.016c-.052.126-.729-.068-1.483.215s-1.169.865-1.284.8,0-.225.147-.493a2.1,2.1,0,0,1,.985-.755,1.96,1.96,0,0,1,1.226-.052C237.54,124.838,237.671,124.963,237.645,125.016Z" transform="translate(-159.448 -112.057)" fill="#263238"/>
      <path id="Path_272" data-name="Path 272" d="M225.985,132.36a.749.749,0,0,1-.524.907.718.718,0,0,1-.912-.472.749.749,0,0,1,.524-.907.723.723,0,0,1,.912.472Z" transform="translate(-154.544 -115.481)" fill="#263238"/>
      <path id="Path_273" data-name="Path 273" d="M223.292,129.289c-.063.115-.718-.152-1.494.042s-1.258.729-1.368.65,0-.225.2-.466a2.028,2.028,0,0,1,1.048-.639,1.95,1.95,0,0,1,1.221.084C223.2,129.084,223.329,129.236,223.292,129.289Z" transform="translate(-152.574 -114.034)" fill="#263238"/>
      <path id="Path_274" data-name="Path 274" d="M232.212,134.353a5.394,5.394,0,0,1,1.211-.524c.2-.073.377-.157.377-.3a1.017,1.017,0,0,0-.283-.556c-.3-.44-.629-.9-.964-1.373a25.217,25.217,0,0,1-2.306-3.669,25.413,25.413,0,0,1,2.594,3.454l.943,1.384a1.211,1.211,0,0,1,.3.76.524.524,0,0,1-.257.372,1.406,1.406,0,0,1-.325.131A5.242,5.242,0,0,1,232.212,134.353Z" transform="translate(-157.264 -113.611)" fill="#263238"/>
      <path id="Path_275" data-name="Path 275" d="M232.071,157.442A14.843,14.843,0,0,1,224,157.3s2.966,3.454,8.5,1.52Z" transform="translate(-154.294 -127.591)" fill="#eb996e"/>
      <path id="Path_276" data-name="Path 276" d="M229.722,143.365a1.289,1.289,0,0,1,.9-.828,1.688,1.688,0,0,1,1.667.372,1.048,1.048,0,0,1,.252.713c-.026.142,0,.068-.073.178a2.909,2.909,0,0,1-.991,1.012,1.258,1.258,0,0,1-1.41-.157A1.279,1.279,0,0,1,229.722,143.365Z" transform="translate(-156.992 -120.526)" fill="#eb996e"/>
      <path id="Path_277" data-name="Path 277" d="M229.821,142.309c.126-.042.335.807,1.211,1.232s1.756.1,1.792.22-.162.215-.524.32a2.185,2.185,0,0,1-1.483-.136,1.9,1.9,0,0,1-.959-1.048C229.721,142.55,229.763,142.319,229.821,142.309Z" transform="translate(-157.038 -120.456)" fill="#263238"/>
      <path id="Path_278" data-name="Path 278" d="M222.317,125.726c0,.236-.828.325-1.719.666s-1.572.77-1.735.608c-.079-.079,0-.309.252-.587a3.04,3.04,0,0,1,1.2-.791,3.113,3.113,0,0,1,1.431-.178C222.113,125.511,222.328,125.637,222.317,125.726Z" transform="translate(-151.835 -112.421)" fill="#263238"/>
      <path id="Path_279" data-name="Path 279" d="M236.169,121.053c-.094.21-.676.157-1.326.309s-1.164.414-1.336.262c-.079-.079-.037-.278.162-.524a1.871,1.871,0,0,1,1-.556,1.85,1.85,0,0,1,1.143.094C236.09,120.786,236.211,120.948,236.169,121.053Z" transform="translate(-158.8 -110.075)" fill="#263238"/>
      <path id="Path_280" data-name="Path 280" d="M208.9,137.775c-.089,0-3.4-.257-2.621,2.9s3.795,1.714,3.779,1.625S208.9,137.775,208.9,137.775Z" transform="translate(-145.805 -118.297)" fill="#ffbe9d"/>
      <path id="Path_281" data-name="Path 281" d="M209.6,142.461a1.264,1.264,0,0,1-.131.121.561.561,0,0,1-.409.11c-.362-.037-.776-.5-.933-1.048a1.871,1.871,0,0,1-.042-.828.65.65,0,0,1,.309-.524.294.294,0,0,1,.362.068c.063.079.058.147.079.147s.052-.068,0-.194a.372.372,0,0,0-.173-.162.409.409,0,0,0-.325,0,.786.786,0,0,0-.451.634,1.934,1.934,0,0,0,0,.928,1.483,1.483,0,0,0,1.143,1.164.624.624,0,0,0,.482-.21C209.613,142.539,209.613,142.466,209.6,142.461Z" transform="translate(-146.6 -119.413)" fill="#eb996e"/>
      <path id="Path_282" data-name="Path 282" d="M209.648,146.69a.523.523,0,0,0,0,.445.608.608,0,0,0,.33.393.681.681,0,0,0,.618-.1.65.65,0,0,0,.314-.524.682.682,0,0,0-.2-.466c-.215-.2-.419-.178-.414-.162a.9.9,0,0,1,.33.241.619.619,0,0,1,.136.388.524.524,0,0,1-.257.4.556.556,0,0,1-.472.1.524.524,0,0,1-.273-.294A1.858,1.858,0,0,1,209.648,146.69Z" transform="translate(-147.441 -122.337)" fill="#fafafa"/>
      <path id="Path_283" data-name="Path 283" d="M231.6,114.451a5.115,5.115,0,0,0-2.621-1.572c-1-.288-2.039-.425-3.035-.723a9.759,9.759,0,0,1-5.529-4.3,5.87,5.87,0,0,1,5.084-1.148,7.93,7.93,0,0,1,4.408,2.94,12.453,12.453,0,0,1,2.2,4.9" transform="translate(-152.59 -103.436)" fill="#263238"/>
      <path id="Path_284" data-name="Path 284" d="M204.744,114.469c1.8-2.783,5.928-5.073,9.23-4.764.189,2.773-1.1,6.247-2.379,8.716s-1.494,6.342-5.66,6.048c-.288,0-.524.3-.812.215a1.048,1.048,0,0,1-.524-.5A9.334,9.334,0,0,1,204.744,114.469Z" transform="translate(-144.445 -104.927)" fill="#263238"/>
      <path id="Path_285" data-name="Path 285" d="M216.642,110.13a3.319,3.319,0,0,1-.042.729c-.052.466-.126,1.137-.241,1.971a35.639,35.639,0,0,1-1.41,6.41,19.391,19.391,0,0,1-1.462,3.318,5.021,5.021,0,0,1-1.955,2.222,2.1,2.1,0,0,1-1.981,0,1.342,1.342,0,0,1-.414-.362c-.073-.1-.1-.168-.089-.173a1.861,1.861,0,0,0,2.4.377,4.99,4.99,0,0,0,1.824-2.175,20.721,20.721,0,0,0,1.426-3.286,42.207,42.207,0,0,0,1.478-6.352c.126-.786.236-1.441.325-1.955A4.191,4.191,0,0,1,216.642,110.13Z" transform="translate(-147.177 -105.143)" fill="#263238"/>
      <path id="Path_286" data-name="Path 286" d="M157.478,137.333a1.148,1.148,0,0,1-.073-.325,2.978,2.978,0,0,1,.052-.949,3.575,3.575,0,0,1,.634-1.373,3.485,3.485,0,0,1,1.6-1.2,4.271,4.271,0,0,1,2.421,0,4.35,4.35,0,0,0,2.621,0,4.3,4.3,0,0,0,2.1-2.007,9.1,9.1,0,0,0,.928-3.066,24.348,24.348,0,0,1,.629-3.223,7.647,7.647,0,0,1,1.457-2.7,7.563,7.563,0,0,1,7.893-2.448,7.013,7.013,0,0,1,.891.325,1.629,1.629,0,0,1,.294.157c0,.026-.419-.183-1.216-.377a7.668,7.668,0,0,0-3.407-.073,7.411,7.411,0,0,0-4.261,2.579,7.5,7.5,0,0,0-1.4,2.621,25.154,25.154,0,0,0-.608,3.192,9.3,9.3,0,0,1-.964,3.145,4.533,4.533,0,0,1-2.227,2.1,3.3,3.3,0,0,1-1.447.2,9.271,9.271,0,0,1-1.331-.225,4.051,4.051,0,0,0-2.311-.042,3.349,3.349,0,0,0-1.541,1.111,3.585,3.585,0,0,0-.65,1.3,3.742,3.742,0,0,0-.079,1.284Z" transform="translate(-122.594 -109.72)" fill="#263238"/>
      <path id="Path_287" data-name="Path 287" d="M199.77,116.109a1.991,1.991,0,0,1,.241-.482,5.634,5.634,0,0,1,.938-1.148,8.831,8.831,0,0,1,4.329-2.18,17.128,17.128,0,0,1,4.858-.183c.618.058,1.116.115,1.462.168a1.876,1.876,0,0,1,.524.1,18.754,18.754,0,0,1-2.007-.079,19.487,19.487,0,0,0-4.79.257,9.182,9.182,0,0,0-4.251,2.055A11.692,11.692,0,0,0,199.77,116.109Z" transform="translate(-142.763 -106.043)" fill="#455a64"/>
      <path id="Path_288" data-name="Path 288" d="M208.08,109.664a4.349,4.349,0,0,1,1.237-.451,12.883,12.883,0,0,1,3.145-.414,9.781,9.781,0,0,1,1.751.131,2.227,2.227,0,0,1,1.289.681,1.4,1.4,0,0,1,.372.912c0,.236-.073.356-.084.351a3.022,3.022,0,0,1,0-.346,1.426,1.426,0,0,0-.409-.786,2.1,2.1,0,0,0-1.195-.566,10.241,10.241,0,0,0-1.7-.1,15.9,15.9,0,0,0-3.1.325,12.755,12.755,0,0,1-1.305.262Z" transform="translate(-146.717 -104.509)" fill="#455a64"/>
      <path id="Path_289" data-name="Path 289" d="M197.058,129.219a.63.63,0,0,1-.089-.215,2.621,2.621,0,0,1-.147-.639,4.293,4.293,0,0,1,.451-2.369,6.955,6.955,0,0,1,2.358-2.683,40.406,40.406,0,0,1,3.8-2.159,15.687,15.687,0,0,0,5.666-5.32,15.517,15.517,0,0,0,1.132-2.1,6.222,6.222,0,0,1,.372-.8.88.88,0,0,1-.058.22c-.047.142-.1.356-.215.618a13.941,13.941,0,0,1-1.048,2.165,15.3,15.3,0,0,1-5.7,5.456,42.62,42.62,0,0,0-3.784,2.1,6.939,6.939,0,0,0-2.332,2.563,4.408,4.408,0,0,0-.524,2.275C196.969,128.931,197.089,129.219,197.058,129.219Z" transform="translate(-141.35 -106.48)" fill="#455a64"/>
      <path id="Path_290" data-name="Path 290" d="M216.522,177.83c-.042,0-.037-.524-.183-1.384a9.591,9.591,0,0,0-1.122-3.145,5.3,5.3,0,0,0-2.285-2.327,3.3,3.3,0,0,0-1.342-.215.807.807,0,0,1,.372-.1,2.238,2.238,0,0,1,1.048.147,5.068,5.068,0,0,1,2.442,2.364,8.626,8.626,0,0,1,1.08,3.234A4.01,4.01,0,0,1,216.522,177.83Z" transform="translate(-148.388 -133.943)" fill="#263238"/>
      <path id="Path_291" data-name="Path 291" d="M213.627,165.52l12.406,9.486L222.474,164l3.008,1.541s5.367,9.927,7.075,14.921a35.356,35.356,0,0,1,1.478,5.959c.4,3.59-1.6,7.6-1.6,7.6l1.714,12.951c.241,1.394-.666,2.741-1.279,2.741L213.439,207.1c-2.531-.5-3.569-1.824-3.417-3.291l.293-2.715-8.3-27.778c-.487,1.646-1-3.994,2.71-5.351C206.29,167.37,211.243,165.048,213.627,165.52Z" transform="translate(-143.669 -130.779)" fill="#ff725e"/>
      <path id="Path_292" data-name="Path 292" d="M251,177.21a1.575,1.575,0,0,1,.157.2l.4.592c.346.524.839,1.268,1.42,2.217a35.21,35.21,0,0,1,3.774,7.825,17.3,17.3,0,0,1,.582,8.632,11.6,11.6,0,0,1-.812,2.516c-.121.288-.252.493-.325.639a.993.993,0,0,1-.131.21s.131-.32.362-.891a13.3,13.3,0,0,0,.729-2.51,17.867,17.867,0,0,0-.65-8.533,38.3,38.3,0,0,0-3.669-7.809l-1.347-2.259-.367-.618A1.046,1.046,0,0,1,251,177.21Z" transform="translate(-167.143 -137.066)" fill="#263238"/>
      <path id="Path_293" data-name="Path 293" d="M254.273,238.064a3.344,3.344,0,0,0-.524,1.876c.026.225.168.524.393.466.142,0,.231-.162.3-.288,1.242-2.233,2.416-4.135,3.669-6.368l-.058-.44A17.5,17.5,0,0,0,254.273,238.064Z" transform="translate(-168.451 -163.763)" fill="#fafafa"/>
      <path id="Path_294" data-name="Path 294" d="M251.065,230.6a19.917,19.917,0,0,0,3.983-.168l-.031-.225a20.8,20.8,0,0,0-3.721-1.237,6.048,6.048,0,0,0-3.606.262A5.859,5.859,0,0,0,251.065,230.6Z" transform="translate(-165.568 -161.623)" fill="#fafafa"/>
      <path id="Path_295" data-name="Path 295" d="M253.166,221.792l3.737,3.145-.823-1.5a15.3,15.3,0,0,0-3.061-3.622,1.3,1.3,0,0,0-.487-.278.524.524,0,0,0-.524.126.645.645,0,0,0-.068.6A3.386,3.386,0,0,0,253.166,221.792Z" transform="translate(-167.569 -157.198)" fill="#fafafa"/>
      <path id="Path_296" data-name="Path 296" d="M231.288,213.908a16.494,16.494,0,0,0,3.223,1.357h.22a18.1,18.1,0,0,0-2.49-2.689,6.053,6.053,0,0,0-3.312-1.457A5.8,5.8,0,0,0,231.288,213.908Z" transform="translate(-156.64 -153.203)" fill="#fafafa"/>
      <path id="Path_297" data-name="Path 297" d="M238.334,208.249c.592,1.462,1.169,2.856,1.761,4.324l.047-1.509a15.5,15.5,0,0,0-1.012-4.628,1.473,1.473,0,0,0-.3-.472.524.524,0,0,0-.524-.126.629.629,0,0,0-.335.487A3.391,3.391,0,0,0,238.334,208.249Z" transform="translate(-160.934 -150.678)" fill="#fafafa"/>
      <path id="Path_298" data-name="Path 298" d="M245.357,207.73a1.452,1.452,0,0,1-.1.419,2.944,2.944,0,0,1-.173.466,6.45,6.45,0,0,1-.278.6,8.912,8.912,0,0,1-.959,1.447,9.193,9.193,0,0,1-3.349,2.558,8.67,8.67,0,0,1-1.646.524,6.188,6.188,0,0,1-1.153.157,1.416,1.416,0,0,1-.425,0c0-.052.6-.079,1.536-.325a9.508,9.508,0,0,0,1.572-.582,10.872,10.872,0,0,0,1.766-1.048,10.6,10.6,0,0,0,1.5-1.426,9.787,9.787,0,0,0,.98-1.378C245.121,208.291,245.31,207.714,245.357,207.73Z" transform="translate(-160.609 -151.59)" fill="#263238"/>
      <g id="Group_84" data-name="Group 84" transform="translate(75.472 57.361)" opacity="0.3">
        <path id="Path_299" data-name="Path 299" d="M235,215.207a5.183,5.183,0,0,0,5.854.094,6.932,6.932,0,0,0,3.014-5.241A10.582,10.582,0,0,1,235,215.207Z" transform="translate(-235 -210.06)"/>
      </g>
      <g id="Group_85" data-name="Group 85" transform="translate(61.614 50.118)" opacity="0.3">
        <path id="Path_300" data-name="Path 300" d="M210.918,196.24l-2.358,3.354c.493,1.861,1.143,3.611,1.635,5.466a15.849,15.849,0,0,0,.723-8.821Z" transform="translate(-208.56 -196.24)"/>
      </g>
      <path id="Path_301" data-name="Path 301" d="M134.665,268.033l-3.391,5.388-7.51,2.243a1.876,1.876,0,0,1,.43-1.4c.524-.482-1.572.2-1.572.2l-1.572,3.27s-1.048-.073-.991-.991a22.456,22.456,0,0,1,1.247-3.8l.561-.094a1.672,1.672,0,0,1,.215-1.509,5.168,5.168,0,0,1,.849-2.526,8,8,0,0,1,1.541-1.824l6.562-2.7Z" transform="translate(-104.827 -178.502)" fill="#ffbe9d"/>
      <path id="Path_302" data-name="Path 302" d="M133.3,279.4a9.8,9.8,0,0,1-2.442,1.205,9.693,9.693,0,0,1-2.621.718c0-.068,1.148-.414,2.542-.943S133.271,279.332,133.3,279.4Z" transform="translate(-108.722 -185.692)" fill="#eb996e"/>
      <path id="Path_303" data-name="Path 303" d="M126.436,278.12a9.29,9.29,0,0,1-1.923.854,9.13,9.13,0,0,1-2,.629,9,9,0,0,1,1.918-.854A9.216,9.216,0,0,1,126.436,278.12Z" transform="translate(-105.995 -185.088)" fill="#eb996e"/>
      <path id="Path_304" data-name="Path 304" d="M126.981,275a14.22,14.22,0,0,1-1.541.713,14.318,14.318,0,0,1-1.52.76A5.482,5.482,0,0,1,126.981,275Z" transform="translate(-106.666 -183.603)" fill="#eb996e"/>
      <path id="Path_305" data-name="Path 305" d="M127.574,271.86a5.768,5.768,0,0,1-1.221.587,6.1,6.1,0,0,1-1.253.524,2.931,2.931,0,0,1,1.153-.739,2.9,2.9,0,0,1,1.321-.372Z" transform="translate(-107.228 -182.109)" fill="#eb996e"/>
      <path id="Path_306" data-name="Path 306" d="M214.828,172.51a4.255,4.255,0,0,1,.922,1.006,9.3,9.3,0,0,1,1.42,2.982,9.193,9.193,0,0,1,.278,3.286,4.193,4.193,0,0,1-.288,1.336c-.047,0,.058-.524.094-1.352a10.43,10.43,0,0,0-1.661-6.143C215.137,172.929,214.791,172.541,214.828,172.51Z" transform="translate(-149.927 -134.829)" fill="#263238"/>
      <path id="Path_307" data-name="Path 307" d="M176.833,171.2a3.726,3.726,0,0,1,3.47,3.323,16.494,16.494,0,0,1-.812,7.448c-1.693,3.962-18.868,24.334-18.868,24.334l-16.557,17.432-4.266-4.271s8.8-14.382,9.995-16.116c2.484-3.622,8.737-10,11.216-14.235s8.019-12,9.691-13.695S173.778,171.205,176.833,171.2Z" transform="translate(-114.224 -134.206)" fill="#ff725e"/>
      <path id="Path_308" data-name="Path 308" d="M189.024,208.909a3.365,3.365,0,0,0-1.871.7c-.168.157-.309.44-.142.6a.477.477,0,0,0,.414.073c2.594-.335,4.995-.524,7.589-.865l.2-.3A17.93,17.93,0,0,0,189.024,208.909Z" transform="translate(-136.655 -152.067)" fill="#fafafa"/>
      <path id="Path_309" data-name="Path 309" d="M198.056,199.111a18.765,18.765,0,0,0,2.437,3.029l.142-.241a18.122,18.122,0,0,0-1.1-3.59,6.137,6.137,0,0,0-2.406-2.809A5.98,5.98,0,0,0,198.056,199.111Z" transform="translate(-141.499 -145.77)" fill="#fafafa"/>
      <path id="Path_310" data-name="Path 310" d="M205.649,195.053c-.1,1.609-.194,3.145-.3,4.764l.708-1.363a15.612,15.612,0,0,0,1.127-4.717,1.4,1.4,0,0,0-.063-.571.524.524,0,0,0-.425-.346.65.65,0,0,0-.524.3,3.449,3.449,0,0,0-.524,1.929Z" transform="translate(-145.418 -144.494)" fill="#fafafa"/>
      <path id="Path_311" data-name="Path 311" d="M199.085,195.6a.886.886,0,0,1-.121.225c-.1.162-.231.367-.388.608-.346.524-.865,1.274-1.52,2.18-1.321,1.819-3.208,4.282-5.335,6.965s-4.1,5.073-5.556,6.813c-.723.854-1.321,1.541-1.735,2.013l-.487.524c-.115.121-.178.183-.183.173a1,1,0,0,1,.142-.21l.451-.566,1.667-2.065,5.493-6.813c2.128-2.678,4.036-5.121,5.393-6.908.65-.875,1.184-1.572,1.572-2.128.168-.231.309-.425.43-.582A1.048,1.048,0,0,1,199.085,195.6Z" transform="translate(-135.143 -145.817)" fill="#263238"/>
      <path id="Path_312" data-name="Path 312" d="M161.07,229.1a17.914,17.914,0,0,0,6.148.723,3.349,3.349,0,0,0,1.923-.524c.183-.142.346-.409.194-.587a.482.482,0,0,0-.409-.1c-2.621.11-5.021.11-7.631.22" transform="translate(-124.346 -161.522)" fill="#fafafa"/>
      <path id="Path_313" data-name="Path 313" d="M162.158,233.993a18.761,18.761,0,0,0-2.17-3.223l-.168.231a18.491,18.491,0,0,0,.8,3.669,6.142,6.142,0,0,0,2.159,3.008A6,6,0,0,0,162.158,233.993Z" transform="translate(-123.751 -162.554)" fill="#fafafa"/>
      <path id="Path_314" data-name="Path 314" d="M155.349,238.247c.241-1.6.461-3.145.7-4.717l-.823,1.295a15.806,15.806,0,0,0-1.525,4.612,1.4,1.4,0,0,0,0,.571.524.524,0,0,0,.388.383.65.65,0,0,0,.556-.257,3.422,3.422,0,0,0,.7-1.887Z" transform="translate(-120.826 -163.868)" fill="#fafafa"/>
    </g>
    <g id="freepik--paper-plane--inject-46" transform="translate(208.499 49.478)">
      <path id="Path_315" data-name="Path 315" d="M398.5,57.676l2.427,3.134.839,5.157,1.834-1.289,1.834,2.731,16.258-15.4Z" transform="translate(-380.534 -52.003)" fill="#ff725e"/>
      <path id="Path_316" data-name="Path 316" d="M406.9,74.132l-.828.566-.587-2.888Z" transform="translate(-383.855 -61.426)" opacity="0.3"/>
      <path id="Path_317" data-name="Path 317" d="M403.13,60.81l20.765-8.8L404.487,62.094l-.519,3.873Z" transform="translate(-382.737 -52.003)" opacity="0.3"/>
      <path id="Path_318" data-name="Path 318" d="M424.837,52a1.238,1.238,0,0,1-.241.157l-.713.4L421.226,54l-8.836,4.649-7.07,3.669.047-.152c.891,1.619,1.7,2.919,2.275,3.816.278.43.5.776.676,1.048a1.851,1.851,0,0,1,.22.377,2.134,2.134,0,0,1-.278-.341c-.173-.225-.419-.566-.723-1.006-.613-.881-1.452-2.165-2.369-3.779l-.058-.1.1-.058,7.049-3.705,8.847-4.575,2.7-1.357.739-.362A.965.965,0,0,1,424.837,52Z" transform="translate(-383.679 -51.998)" fill="#263238"/>
      <path id="Path_319" data-name="Path 319" d="M423.8,52c.031.068-4.623,2.1-10.393,4.575S402.92,60.966,402.92,60.9s4.623-2.1,10.393-4.575S423.769,51.936,423.8,52Z" transform="translate(-382.637 -51.997)" fill="#263238"/>
      <path id="Path_320" data-name="Path 320" d="M404.69,75.233a6.681,6.681,0,0,1,.052-1.892,6.756,6.756,0,0,1,.325-1.861,6.653,6.653,0,0,1-.052,1.887,6.545,6.545,0,0,1-.325,1.866Z" transform="translate(-383.459 -61.269)" fill="#263238"/>
      <path id="Path_321" data-name="Path 321" d="M365.52,102.932c0,.073-.267.173-.634.225a1.033,1.033,0,0,1-.666-.047,1.092,1.092,0,0,1,.629-.225C365.2,102.837,365.5,102.848,365.52,102.932Z" transform="translate(-364.22 -76.201)" fill="#263238"/>
      <path id="Path_322" data-name="Path 322" d="M373.591,99c.042.058-.388.461-1.006.828a2.579,2.579,0,0,1-1.216.477c-.031-.073.472-.356,1.074-.713A4.072,4.072,0,0,1,373.591,99Z" transform="translate(-367.621 -74.365)" fill="#263238"/>
      <path id="Path_323" data-name="Path 323" d="M380.708,91.658a2.573,2.573,0,0,1-.577,1.169c-.414.592-.854.98-.912.933a4.325,4.325,0,0,1,.692-1.09C380.315,92.1,380.64,91.622,380.708,91.658Z" transform="translate(-371.358 -70.871)" fill="#263238"/>
      <path id="Path_324" data-name="Path 324" d="M384.166,82.24a2.233,2.233,0,0,1,.115,1.3,2.348,2.348,0,0,1-.377,1.253,4.8,4.8,0,0,1,.1-1.279,5.513,5.513,0,0,1,.157-1.274Z" transform="translate(-373.584 -66.389)" fill="#263238"/>
      <path id="Path_325" data-name="Path 325" d="M378.46,75.448a1.766,1.766,0,0,1,1.295.236c.681.341.985.9.933.928s-.446-.383-1.048-.687S378.449,75.531,378.46,75.448Z" transform="translate(-370.996 -63.14)" fill="#263238"/>
      <path id="Path_326" data-name="Path 326" d="M370.66,78.475a1.85,1.85,0,0,1,.524-1.205,1.766,1.766,0,0,1,1.08-.749c.042.068-.435.388-.865.922S370.733,78.5,370.66,78.475Z" transform="translate(-367.285 -63.667)" fill="#263238"/>
      <path id="Path_327" data-name="Path 327" d="M371.291,87.392a2.039,2.039,0,0,1-.807-1.048,2.013,2.013,0,0,1-.252-1.284,7.773,7.773,0,0,1,.524,1.174C371.019,86.879,371.36,87.335,371.291,87.392Z" transform="translate(-367.072 -67.731)" fill="#263238"/>
      <path id="Path_328" data-name="Path 328" d="M378.589,93.207a2.259,2.259,0,0,1-1.3-.1,2.233,2.233,0,0,1-1.169-.587,5.688,5.688,0,0,1,1.242.325,5.268,5.268,0,0,1,1.226.362Z" transform="translate(-369.883 -71.282)" fill="#263238"/>
      <path id="Path_329" data-name="Path 329" d="M388.141,91.83a2.526,2.526,0,0,1-1.137.613,2.448,2.448,0,0,1-1.284.231,4.6,4.6,0,0,1,1.19-.487A4.388,4.388,0,0,1,388.141,91.83Z" transform="translate(-374.452 -70.953)" fill="#263238"/>
      <path id="Path_330" data-name="Path 330" d="M396.508,86.14c.052.052-.356.466-.912.917a3.144,3.144,0,0,1-1.08.713c-.047-.063.362-.477.912-.922a3.186,3.186,0,0,1,1.08-.708Z" transform="translate(-378.636 -68.245)" fill="#263238"/>
      <path id="Path_331" data-name="Path 331" d="M402.493,80.577c.068.031,0,.33-.236.634s-.451.487-.524.44.084-.309.288-.6S402.425,80.546,402.493,80.577Z" transform="translate(-382.064 -65.597)" fill="#263238"/>
    </g>
  </g>
</svg>
