<svg xmlns="http://www.w3.org/2000/svg" width="12.286" height="10.75" viewBox="0 0 12.286 10.75">
  <path id="Path_148" data-name="Path 148" d="M7.1,32H11.71a.576.576,0,0,1,.576.576v3.839a.576.576,0,0,1-.576.576H7.1a.576.576,0,0,1-.576-.576V32.576A.576.576,0,0,1,7.1,32Zm-1.92,0H.576A.576.576,0,0,0,0,32.576v3.839a.576.576,0,0,0,.576.576H5.183a.576.576,0,0,0,.576-.576V32.576A.576.576,0,0,0,5.183,32ZM0,38.335v3.839a.576.576,0,0,0,.576.576H5.183a.576.576,0,0,0,.576-.576V38.335a.576.576,0,0,0-.576-.576H.576A.576.576,0,0,0,0,38.335ZM7.1,42.75H11.71a.576.576,0,0,0,.576-.576V38.335a.576.576,0,0,0-.576-.576H7.1a.576.576,0,0,0-.576.576v3.839A.576.576,0,0,0,7.1,42.75Z" transform="translate(0 -32)" fill="#162a40"/>
</svg>
